<svg width="30" height="30" viewBox="0 0 30 30" fill="none" xmlns="http://www.w3.org/2000/svg">
<path d="M10.625 12.5C11.6605 12.5 12.5 11.6605 12.5 10.625C12.5 9.58947 11.6605 8.75 10.625 8.75C9.58947 8.75 8.75 9.58947 8.75 10.625C8.75 11.6605 9.58947 12.5 10.625 12.5Z" stroke="#595959" stroke-width="2" stroke-linecap="round" stroke-linejoin="round"/>
<path d="M26.25 18.75L20 12.5L6.25 26.25" stroke="#595959" stroke-width="2" stroke-linecap="round" stroke-linejoin="round"/>
<path d="M3.75 6.25C3.75 4.86929 4.86929 3.75 6.25 3.75H23.75C25.1307 3.75 26.25 4.86929 26.25 6.25V23.75C26.25 25.1307 25.1307 26.25 23.75 26.25H6.25C4.86929 26.25 3.75 25.1307 3.75 23.75V6.25Z" stroke="#595959" stroke-width="2" stroke-linecap="round" stroke-linejoin="round"/>
</svg>
