<?xml version="1.0" encoding="UTF-8"?>
<svg version="1.1" xmlns="http://www.w3.org/2000/svg" width="219" height="230">
<path d="M0 0 C72.27 0 144.54 0 219 0 C219 75.9 219 151.8 219 230 C146.73 230 74.46 230 0 230 C0 154.1 0 78.2 0 0 Z " fill="#FDFEFE" transform="translate(0,0)"/>
<path d="M0 0 C72.27 0 144.54 0 219 0 C219 53 219 53 215 58 C212.74248484 59.45001935 210.64607975 60.65219724 208.25 61.8125 C207.22410767 62.31571777 207.22410767 62.31571777 206.17749023 62.82910156 C191.01297605 69.9735533 174.435463 74.82562086 158 78 C156.79021484 78.23460938 155.58042969 78.46921875 154.33398438 78.7109375 C150.75304779 79.39893639 147.16848057 80.06550765 143.58148193 80.72113037 C142.15148569 80.98287376 140.72196551 81.24723697 139.29302979 81.51470947 C118.07503284 85.45784345 96.91353583 86.33313708 75.36352539 86.26074219 C71.54232173 86.24994297 67.7215809 86.26074981 63.90039062 86.2734375 C20.33010592 86.300801 20.33010592 86.300801 6 72 C-10.0354884 50.77316644 0 33.46036071 0 0 Z " fill="#FEFEFE" transform="translate(0,0)"/>
<path d="M0 0 C9.79735078 7.07113143 15.68612043 16.87075392 18.24609375 28.62109375 C18.66482645 32.48639699 18.72325479 36.29807117 18.68359375 40.18359375 C18.67602051 41.23353516 18.66844727 42.28347656 18.66064453 43.36523438 C18.46830777 52.55808922 17.08291547 60.89473654 14.24609375 69.62109375 C14.03178711 70.29043945 13.81748047 70.95978516 13.59667969 71.64941406 C7.35295759 90.65323198 -3.7337758 113.27434012 -20.75390625 124.62109375 C-23.87890625 124.80859375 -23.87890625 124.80859375 -26.75390625 124.62109375 C-27.75390625 123.62109375 -27.75390625 123.62109375 -27.9765625 120.45703125 C-27.74041679 116.3886964 -26.8693924 113.93503458 -25.19140625 110.24609375 C-18.88742617 95.44983355 -15.01896451 79.62768478 -12.31640625 63.80859375 C-12.15253418 62.86185791 -11.98866211 61.91512207 -11.81982422 60.93969727 C-10.28630545 51.19971128 -9.11285762 40.68042068 -13.75390625 31.62109375 C-17.84105251 26.42931337 -21.71187872 25.01543065 -28.12890625 24.18359375 C-33.55206093 24.83811242 -37.55532162 27.0837916 -41.1484375 31.23046875 C-43.90178227 35.47237094 -44.78821011 39.72129832 -43.75390625 44.62109375 C-42.04555749 48.94412896 -40.04876064 53.02029525 -37.1171875 56.64453125 C-35.09508969 59.57628337 -35.21391821 61.89278739 -35.33984375 65.3671875 C-36.07097534 69.34702645 -37.73597335 70.93119704 -40.75390625 73.62109375 C-45.6890718 76.20083938 -50.48323883 76.08226888 -55.75390625 74.62109375 C-62.86917105 71.33351266 -67.15033505 66.46678373 -70.75390625 59.62109375 C-71.16769531 58.86699219 -71.58148438 58.11289063 -72.0078125 57.3359375 C-76.95887285 46.45050515 -76.66152224 31.54526128 -72.69140625 20.37109375 C-66.47332467 6.85200626 -56.27065542 -1.62463303 -42.75390625 -7.37890625 C-28.23138022 -11.61371636 -12.42481191 -7.97175932 0 0 Z " fill="#028E71" transform="translate(137.75390625,104.37890625)"/>
<path d="M0 0 C7.61553346 1.36830533 15.26185836 2.44315865 22.92919922 3.47851562 C24.15509766 3.64899414 25.38099609 3.81947266 26.64404297 3.99511719 C44.38857919 6.37144885 61.99166831 6.55624373 79.86669922 6.54101562 C81.06262695 6.54074371 82.25855469 6.5404718 83.49072266 6.54019165 C113.82662052 6.50848183 143.70564905 5.05713563 173.49169922 -1.09570312 C181.60646444 -2.44497423 181.60646444 -2.44497423 185.80419922 0.35351562 C185.80419922 2.97851562 185.80419922 2.97851562 184.80419922 6.35351562 C180.13049131 10.87830457 174.45768188 13.79604463 168.49169922 16.22851562 C167.67596436 16.56165771 166.86022949 16.8947998 166.01977539 17.23803711 C147.98818291 24.37801872 129.60073822 28.86556151 110.55419922 32.22851562 C109.74181793 32.37394806 108.92943665 32.51938049 108.09243774 32.66921997 C86.16070309 36.54618038 64.42138785 37.68901655 42.16772461 37.61425781 C38.34652095 37.6034586 34.52578012 37.61426544 30.70458984 37.62695312 C-12.86569486 37.65431663 -12.86569486 37.65431663 -27.19580078 23.35351562 C-31.41514503 17.76819662 -33.67808968 13.46727682 -33.19580078 6.35351562 C-28.00323143 -6.33943168 -10.59683901 -1.91341634 0 0 Z " fill="#028E71" transform="translate(33.19580078125,48.646484375)"/>
<path d="M0 0 C0.86753906 -0.020625 1.73507813 -0.04125 2.62890625 -0.0625 C3.46292969 -0.06765625 4.29695313 -0.0728125 5.15625 -0.078125 C5.91744141 -0.0874707 6.67863281 -0.09681641 7.46289062 -0.10644531 C10.04030358 0.34454018 10.90016224 1.22092996 12.5 3.25 C13.125 5.30078125 13.125 5.30078125 13.5 7.5625 C14.08045603 10.61235374 14.64198387 12.51758498 16.125 15.3125 C18.21082241 19.76857515 18.28512213 23.66749135 16.87890625 28.29296875 C14.43861927 33.90020595 10.45018294 37.74319689 5.5 41.25 C-0.51110849 43.25370283 -8.05718026 43.4694415 -14.05859375 41.34375 C-19.39641109 38.19554772 -22.24617653 34.0711028 -24.75 28.4375 C-26.46040909 21.16826137 -26.08867319 15.78573541 -22.1328125 9.33203125 C-15.99119215 1.50073067 -9.44495999 0.05613646 0 0 Z " fill="#D80C18" transform="translate(113.5,0.75)"/>
</svg>
