<?xml version="1.0" encoding="UTF-8"?>
<svg version="1.1" xmlns="http://www.w3.org/2000/svg" width="228" height="221">
<path d="M0 0 C75.24 0 150.48 0 228 0 C228 72.93 228 145.86 228 221 C152.76 221 77.52 221 0 221 C0 148.07 0 75.14 0 0 Z " fill="#FDFEFE" transform="translate(0,0)"/>
<path d="M0 0 C1.06798828 0.37898437 2.13597656 0.75796875 3.23632812 1.1484375 C21.74079444 7.93077091 34.20408713 19.09563816 42.94140625 36.64453125 C49.96552427 53.10325798 48.74210758 69.46998289 42.5625 85.875 C41.36031288 88.678823 40.08334444 91.22760413 38.5625 93.875 C37.634375 93.05 36.70625 92.225 35.75 91.375 C25.84241102 82.98710096 16.9349683 78.28795488 4.5625 72.875 C4.5625 91.685 4.5625 110.495 4.5625 129.875 C15.75104794 125.32051773 15.75104794 125.32051773 25.5 119.375 C27.08167969 118.23224609 27.08167969 118.23224609 28.6953125 117.06640625 C32.11253566 114.4546049 35.37698927 111.76418415 38.5625 108.875 C46.91511263 123.39070545 50.35780467 139.94048417 46.07226562 156.35083008 C43.11164332 166.66632142 38.88480386 175.90661051 31.5625 183.875 C25.54233154 182.64272556 19.74774626 181.08199219 13.92504883 179.12524414 C13.11407242 178.85667099 12.30309601 178.58809784 11.46754456 178.31138611 C8.81669078 177.4321301 6.16805887 176.54639217 3.51953125 175.66015625 C1.66355487 175.04217196 -0.19251047 174.42445477 -2.04866028 173.80699158 C-5.92526768 172.51625828 -9.80077892 171.22229902 -13.67553711 169.92602539 C-18.63307111 168.26780766 -23.59326293 166.61770923 -28.55430126 164.9700098 C-32.38243408 163.69758408 -36.20912381 162.42086352 -40.03539467 161.14285088 C-41.86373215 160.53273986 -43.69251315 159.92395623 -45.5217495 159.31654549 C-48.07872372 158.46676957 -50.63369478 157.61121867 -53.18823242 156.75415039 C-53.9379834 156.50625763 -54.68773438 156.25836487 -55.46020508 156.00296021 C-66.85887922 152.15761745 -66.85887922 152.15761745 -70.75 147.375 C-71.24113281 146.7871875 -71.73226562 146.199375 -72.23828125 145.59375 C-75.31502952 141.18407822 -74.81065531 136.01285186 -74.4375 130.875 C-73.83192124 127.930306 -72.88606582 125.17871307 -71.8515625 122.359375 C-71.56697174 121.54172165 -71.28238098 120.7240683 -70.98916626 119.88163757 C-70.36062736 118.08037057 -69.72514663 116.28151448 -69.08361816 114.48483276 C-67.26171594 109.38225419 -65.48975338 104.26225476 -63.7109375 99.14453125 C-63.31084473 97.99771378 -62.91075195 96.8508963 -62.49853516 95.66932678 C-58.80061225 85.02697157 -55.25551181 74.33611357 -51.7265625 63.63671875 C-51.14146272 61.86547761 -50.55626767 60.09426793 -49.97097778 58.3230896 C-47.62207257 51.21267487 -45.27325075 44.1022616 -42.94073486 36.9864502 C-41.54964578 32.74337798 -40.14995426 28.50323292 -38.74430466 24.26496315 C-38.22229724 22.68552722 -37.70353049 21.10501606 -37.18822098 19.52338219 C-36.47527798 17.33622332 -35.75116876 15.1530606 -35.02441406 12.97045898 C-34.61966858 11.73988266 -34.2149231 10.50930634 -33.7979126 9.24143982 C-31.5288821 3.62655898 -28.93400937 -0.63911537 -23.39208984 -3.43847656 C-15.37170657 -6.25552849 -7.49119303 -2.81088662 0 0 Z " fill="#0198D9" transform="translate(83.4375,13.125)"/>
<path d="M0 0 C4.44233011 0.75738165 8.64229411 2.11103083 12.90795898 3.52856445 C13.68909058 3.78563171 14.47022217 4.04269897 15.27502441 4.30755615 C17.84983372 5.15611683 20.42307805 6.00929846 22.99609375 6.86328125 C24.79061337 7.4576175 26.58513344 8.0519524 28.37965393 8.64628601 C32.13872683 9.89231502 35.8968643 11.14112477 39.65454102 12.39135742 C44.46130675 13.98995501 49.27168107 15.57738718 54.08300686 17.16219807 C57.79027614 18.38551901 61.49482637 19.61691565 65.1986866 20.85051537 C66.97064715 21.43915551 68.74360464 22.02480361 70.51757622 22.60735512 C73.00218907 23.42414681 75.48273975 24.25229913 77.96264648 25.08325195 C78.69062943 25.31976974 79.41861237 25.55628754 80.1686554 25.79997253 C86.8179749 28.05258072 91.92923795 31.12001037 96 37 C98.02136568 43.06409705 96.8905447 48.20546034 94.921875 54.13671875 C94.56991562 55.21150986 94.56991562 55.21150986 94.21084595 56.30801392 C93.40091924 58.7713948 92.575662 61.22935184 91.75 63.6875 C91.15502219 65.48111879 90.56081734 67.27499412 89.96728516 69.0690918 C88.54493837 73.36151447 87.11510589 77.65138172 85.68261719 81.94042969 C83.35516792 88.91431722 81.05421134 95.89683472 78.75580597 102.88033962 C76.25750837 110.47049946 73.75187215 118.05821216 71.24147797 125.64437962 C69.64808824 130.45972533 68.05723816 135.27587381 66.47253418 140.09408569 C64.95333281 144.71168871 63.42503903 149.32618938 61.89017868 153.93861008 C61.31757519 155.66431362 60.74809971 157.39105858 60.18193436 159.11888504 C59.39711415 161.51223711 58.60106655 163.90157374 57.80224609 166.2902832 C57.57677471 166.98670268 57.35130333 167.68312216 57.11899948 168.40064526 C55.14784047 174.22756026 52.56713101 179.51334279 47.25 182.875 C46.63640625 183.28492188 46.0228125 183.69484375 45.390625 184.1171875 C39.10572618 186.43808151 33.04380481 184.73058237 27 182.59375 C26.2788501 182.34959351 25.5577002 182.10543701 24.81469727 181.85388184 C22.53908042 181.0805576 20.2696513 180.29063942 18 179.5 C16.44699478 178.96893896 14.8936121 178.43898038 13.33984375 177.91015625 C9.55541557 176.61946663 5.776438 175.31387513 2 174 C3.41800747 170.30681699 5.0368804 167.36435207 7.3125 164.125 C17.00093435 149.23838688 19.47451543 130.08169291 16.3515625 112.7421875 C14.45801521 104.98997253 11.44933834 98.54057718 7.29296875 91.8046875 C5.77264021 88.50681472 5.80264164 87.3782611 7 84 C7.89113494 82.18482667 8.83362865 80.39440289 9.8125 78.625 C18.18418419 62.04301348 19.85803196 43.40926266 14.40234375 25.60546875 C10.83841962 16.44251062 6.0550284 7.75800514 0 0 Z " fill="#014B9D" transform="translate(122,27)"/>
<path d="M0 0 C1.04414063 0.0928125 2.08828125 0.185625 3.1640625 0.28125 C4.75347656 0.38953125 4.75347656 0.38953125 6.375 0.5 C7.56996094 0.63921875 7.56996094 0.63921875 8.7890625 0.78125 C4.68644387 7.13506365 0.2864644 13.15887428 -4.3984375 19.09375 C-5.62134009 20.65215047 -6.84400481 22.21073765 -8.06640625 23.76953125 C-8.59903076 24.44540283 -9.13165527 25.12127441 -9.68041992 25.81762695 C-10.18549072 26.46562256 -10.69056152 27.11361816 -11.2109375 27.78125 C-11.78030029 28.47710205 -12.34966309 29.1729541 -12.9362793 29.88989258 C-13.3569165 30.51404053 -13.77755371 31.13818848 -14.2109375 31.78125 C-13.22304483 36.65373758 -9.56699163 40.54922458 -6.5859375 44.40625 C-5.5047202 45.82775385 -4.42399311 47.24963069 -3.34375 48.671875 C-2.81297852 49.36732422 -2.28220703 50.06277344 -1.73535156 50.77929688 C0.37868696 53.55558065 2.46676027 56.34861472 4.5390625 59.15625 C5.17328125 60.00960937 5.8075 60.86296875 6.4609375 61.7421875 C7.7890625 63.78125 7.7890625 63.78125 7.7890625 65.78125 C3.75448706 67.01830419 0.81917998 67.10054772 -3.2109375 65.78125 C-7.84276379 61.70099784 -11.16562808 56.24442417 -14.59130859 51.16015625 C-17.12836342 47.43373747 -19.83453556 43.83615236 -22.5234375 40.21875 C-24.0906698 38.07631576 -25.65094891 35.92896977 -27.2109375 33.78125 C-25.73040361 30.55217046 -23.89049569 27.8904529 -21.7265625 25.078125 C-21.03820312 24.17964844 -20.34984375 23.28117187 -19.640625 22.35546875 C-18.92132813 21.42347656 -18.20203125 20.49148437 -17.4609375 19.53125 C-16.0492165 17.69291001 -14.63775433 15.85437123 -13.2265625 14.015625 C-12.54094238 13.13390625 -11.85532227 12.2521875 -11.14892578 11.34375 C-9.91393049 9.71078066 -8.71935373 8.04586307 -7.58154297 6.34375 C-3.94588866 0.96007023 -3.94588866 0.96007023 0 0 Z " fill="#F8FAFC" transform="translate(176.2109375,81.21875)"/>
<path d="M0 0 C2.97 0 5.94 0 9 0 C9 21.45 9 42.9 9 65 C6.03 65 3.06 65 0 65 C0 43.55 0 22.1 0 0 Z " fill="#FDFEFE" transform="translate(58,82)"/>
<path d="M0 0 C5.31383217 1.77127739 7.6233531 2.9437273 11.75 6.375 C12.69359375 7.14585938 13.6371875 7.91671875 14.609375 8.7109375 C16.77563891 10.7851706 17.91795881 12.24456953 19 15 C13.86755258 20.45322538 8.84454385 25.73365893 2 29 C1.34 29 0.68 29 0 29 C0 19.43 0 9.86 0 0 Z " fill="#E63C2F" transform="translate(97,100)"/>
<path d="M0 0 C0.99 0.33 1.98 0.66 3 1 C3 9.91 3 18.82 3 28 C2.01 28.33 1.02 28.66 0 29 C0 19.43 0 9.86 0 0 Z " fill="#E85044" transform="translate(97,100)"/>
</svg>
