<?xml version="1.0" encoding="UTF-8"?>
<svg version="1.1" xmlns="http://www.w3.org/2000/svg" width="266" height="189">
<path d="M0 0 C87.78 0 175.56 0 266 0 C266 62.37 266 124.74 266 189 C178.22 189 90.44 189 0 189 C0 126.63 0 64.26 0 0 Z " fill="#F8B502" transform="translate(0,0)"/>
<path d="M0 0 C53.46 0 106.92 0 162 0 C162 34.32 162 68.64 162 104 C160 102 160 102 158.6640625 99.6015625 C153.64115251 91.74884406 144.31312003 88.48667171 135.64453125 86.4453125 C122.89631881 84.29864157 110.65516212 86.6531008 99.09765625 92.1171875 C97.94918213 92.65714355 96.80070801 93.19709961 95.61743164 93.75341797 C94.7536792 94.16479004 93.88992676 94.57616211 93 95 C93.00785522 93.5162085 93.00785522 93.5162085 93.01586914 92.00244141 C93.03394523 88.33855084 93.04544158 84.67466423 93.05493164 81.01074219 C93.05996588 79.42382139 93.06679369 77.83690523 93.07543945 76.25 C93.08754482 73.97134251 93.09323733 71.69274624 93.09765625 69.4140625 C93.10281754 68.70255035 93.10797882 67.99103821 93.11329651 67.25796509 C93.17314758 63.50406444 93.17314758 63.50406444 92 60 C86.23923357 59.51993613 81.58385896 60.22818228 77 64 C75.48287971 67.06464699 75.27291317 70.11947304 75 73.5 C74.89518311 74.49580078 74.79036621 75.49160156 74.68237305 76.51757812 C73.06303231 94.90665636 73.76005102 113.56207448 74 132 C80.76403372 134.25467791 87.29243545 132.73899822 94 131 C93.87625 129.906875 93.7525 128.81375 93.625 127.6875 C93.66800045 119.57474812 98.91225358 112.8230206 104.25 107.125 C110.50460731 101.30894612 116.4726221 97.79945627 125.125 97.375 C131.2029324 97.6181173 135.70025553 99.70025553 140 104 C140.85244368 111.69994209 139.77659392 118.22181353 136 125 C133.625 127.8125 133.625 127.8125 131 130 C130.071875 130.845625 129.14375 131.69125 128.1875 132.5625 C116.75493684 141.73147296 99.40122971 144.94547377 85.01123047 143.39941406 C79.40295561 142.28565615 75.31959161 138.50329084 71 135 C68.5977174 133.2797965 66.14762399 131.63608503 63.6875 130 C62.75031128 129.36964844 62.75031128 129.36964844 61.79418945 128.7265625 C56.20761199 125.01981508 50.39656113 121.85053743 44.4375 118.7890625 C39.00662237 115.96253755 34.21226965 113.25338925 29.4765625 109.375 C23.07158731 104.14228818 16.23825912 99.60068483 9.375 95 C8.07134894 94.12148782 6.76796178 93.24258389 5.46484375 92.36328125 C2.31291107 90.23767225 -0.84251415 88.1173503 -4 86 C-0.60134637 82.47509349 3.02305226 79.91326271 7.1875 77.375 C7.89310059 76.9404248 8.59870117 76.50584961 9.32568359 76.05810547 C11.54538023 74.69685505 13.77134649 73.34652935 16 72 C17.01682861 71.38415039 17.01682861 71.38415039 18.05419922 70.75585938 C26.5198333 65.64966937 35.11438713 60.82319535 43.8125 56.125 C57.65335402 48.62245852 71.34616479 40.97033869 84 31.5625 C84.65274902 31.07845703 85.30549805 30.59441406 85.97802734 30.09570312 C92.18440729 25.37367789 92.18440729 25.37367789 95.64453125 18.578125 C95.69996094 17.80984375 95.75539063 17.0415625 95.8125 16.25 C95.88082031 15.47140625 95.94914062 14.6928125 96.01953125 13.890625 C96.22038937 11.9871345 96.22038937 11.9871345 95 11 C83.72831873 9.90919213 74.80251586 15.42910788 66 22 C64.47569935 23.26667237 62.95505506 24.53775375 61.4375 25.8125 C56.9102643 29.48528025 52.11187836 32.30577637 47.01391602 35.08129883 C40.16681903 38.83625968 33.51840869 42.89785821 26.875 47 C25.18987305 48.03930664 25.18987305 48.03930664 23.47070312 49.09960938 C16.36258921 53.49987037 9.31016311 57.97246606 2.34375 62.59375 C0 64 0 64 -2 64 C-2.10318911 57.86386531 -1.77704738 52.02353004 -0.94140625 45.94921875 C-0.8327977 45.12799026 -0.72418915 44.30676178 -0.61228943 43.46064758 C-0.38384532 41.74187035 -0.15261892 40.02346077 0.08129883 38.30541992 C0.43882894 35.67773287 0.78750334 33.04898368 1.13476562 30.41992188 C1.35886283 28.74211901 1.58345466 27.06438212 1.80859375 25.38671875 C1.91280136 24.60439377 2.01700897 23.82206879 2.12437439 23.01603699 C2.58941092 19.6155466 3.16755426 16.32529371 4 13 C4.42546823 6.86552562 4.42546823 6.86552562 3 1 C2.01 0.67 1.02 0.34 0 0 Z " fill="#FEFEFD" transform="translate(104,0)"/>
<path d="M0 0 C3.63777613 1.3481984 6.79160058 2.9860277 10.0703125 5.0546875 C11.03928467 5.6633667 12.00825684 6.2720459 13.0065918 6.89916992 C14.55020386 7.87720581 14.55020386 7.87720581 16.125 8.875 C17.19596924 9.54829346 18.26693848 10.22158691 19.37036133 10.9152832 C24.28056266 14.00502456 29.18008626 17.1109184 34.06640625 20.23828125 C64.01951534 41.76386105 64.01951534 41.76386105 98 51 C101.1850357 49.23984869 101.83296972 48.50109084 103 45 C103.54301758 44.89977539 104.08603516 44.79955078 104.64550781 44.69628906 C124.1287844 41.06018031 144.45489913 36.84336708 158 21 C161.65300722 15.21482938 164.10263472 9.80586028 165 3 C165.33 3 165.66 3 166 3 C166 28.08 166 53.16 166 79 C111.88 79 57.76 79 2 79 C-0.30285235 31.79152685 -0.30285235 31.79152685 -0.125 16.4375 C-0.11486171 14.79362579 -0.1057566 13.14974489 -0.09765625 11.50585938 C-0.07669754 7.67039018 -0.04289657 3.83528374 0 0 Z " fill="#FEFEFD" transform="translate(100,110)"/>
<path d="M0 0 C32.67 0 65.34 0 99 0 C96.4345406 2.5654594 94.52313332 2.54046087 91 3 C84.05055816 25.31136591 79.00317547 47.69990642 77 71 C73.60449679 69.71596415 70.52967578 68.2434664 67.41015625 66.390625 C66.12081177 65.63434814 66.12081177 65.63434814 64.80541992 64.86279297 C63.90025635 64.33057129 62.99509277 63.79834961 62.0625 63.25 C54.96998965 59.12431124 48.04555409 55.59843596 40.41796875 52.58203125 C35.45755258 50.2860672 30.97334468 47.29725758 26.50268555 44.16162109 C23.30376152 42.0120947 21.71872382 40.98259749 17.7734375 41.078125 C13.84860908 42.38271586 10.86674834 43.98707186 8 47 C6.74909837 49.90923126 6.74909837 49.90923126 8 53 C12.74846661 58.09789484 18.45977847 61.75945386 24.5 65.125 C25.29809082 65.5802002 26.09618164 66.03540039 26.91845703 66.50439453 C31.70687177 69.21621483 36.54192363 71.83425688 41.3984375 74.421875 C42.47416016 74.99663574 43.54988281 75.57139648 44.65820312 76.16357422 C46.76395118 77.28389099 48.87448694 78.39526585 50.99023438 79.49658203 C51.96025391 80.01075684 52.93027344 80.52493164 53.9296875 81.0546875 C54.78804199 81.50312012 55.64639648 81.95155273 56.53076172 82.41357422 C59.43357325 84.27856031 61.6394535 86.49584611 64 89 C58.19592297 92.97779996 52.38225128 96.94128015 46.56225586 100.89575195 C44.59071134 102.23766021 42.62124266 103.58262434 40.65405273 104.9309082 C29.82660732 112.34874278 19.06896395 119.39917294 7.31616211 125.26782227 C3.76020344 127.01169227 3.76020344 127.01169227 0 130 C0 87.1 0 44.2 0 0 Z " fill="#FEFEFD" transform="translate(0,0)"/>
<path d="M0 0 C0.06731323 1.44729492 0.06731323 1.44729492 0.13598633 2.92382812 C1.20882135 26.4128119 1.20882135 26.4128119 3.4375 49.8125 C3.54747314 50.75738281 3.65744629 51.70226562 3.77075195 52.67578125 C4.46597371 57.94687025 5.8109507 62.11758878 8 67 C8.4108437 68.49713659 8.78936669 70.00339879 9.140625 71.515625 C9.32496094 72.29164063 9.50929688 73.06765625 9.69921875 73.8671875 C10.06906635 75.46723739 10.42041021 77.07166782 10.75390625 78.6796875 C11.74339054 83.07153398 11.74339054 83.07153398 14.73242188 86.21289062 C16.86367007 87.17793176 16.86367007 87.17793176 20 88 C20 88.33 20 88.66 20 89 C-11.68 89 -43.36 89 -76 89 C-76 70.19 -76 51.38 -76 32 C-74.68 32.66 -73.36 33.32 -72 34 C-55.70372956 35.25502199 -39.24249912 22.00210898 -26 14 C-24.15553141 12.88575229 -22.31051265 11.77241461 -20.46484375 10.66015625 C-19.67843506 10.18457275 -18.89202637 9.70898926 -18.08178711 9.21899414 C-15.45203798 7.67913987 -12.72506359 6.36253179 -10 5 C-7.89358729 3.68846001 -5.80820241 2.35073763 -3.734375 0.98828125 C-2 0 -2 0 0 0 Z " fill="#FEFEFD" transform="translate(76,100)"/>
</svg>
