<?xml version="1.0" encoding="UTF-8"?>
<svg version="1.1" xmlns="http://www.w3.org/2000/svg" width="255" height="197">
<path d="M0 0 C84.15 0 168.3 0 255 0 C255 65.01 255 130.02 255 197 C170.85 197 86.7 197 0 197 C0 131.99 0 66.98 0 0 Z " fill="#FEFEFE" transform="translate(0,0)"/>
<path d="M0 0 C5.90259559 1.31168791 10.24377434 2.30187845 15.5625 4.625 C17.11130859 5.29402344 17.11130859 5.29402344 18.69140625 5.9765625 C19.45324219 6.31429687 20.21507813 6.65203125 21 7 C21 7.66 21 8.32 21 9 C23.475 9.495 23.475 9.495 26 10 C26 10.66 26 11.32 26 12 C26.58007812 11.94457031 27.16015625 11.88914062 27.7578125 11.83203125 C30.50349868 11.80937707 32.42734449 12.00372654 35 13 C38.44496781 17.2767656 40.29646941 22.32054118 42.40234375 27.34765625 C44.5080183 32.16136213 46.8983734 36.80874975 49.30273438 41.47851562 C52 46.78797542 52 46.78797542 52 49 C44.57142857 52.28571429 44.57142857 52.28571429 41 53 C41 53.66 41 54.32 41 55 C40.195625 55.28875 39.39125 55.5775 38.5625 55.875 C35.8673532 56.73262568 35.8673532 56.73262568 35 59 C34.34 59 33.68 59 33 59 C32.690625 59.78375 32.38125 60.5675 32.0625 61.375 C31 64 31 64 30 66 C29.73527273 69.05599558 29.7684294 72.12130835 29.75 75.1875 C29.729375 76.02603516 29.70875 76.86457031 29.6875 77.72851562 C29.64431122 84.64411926 30.72239038 89.43038914 35.4375 94.75 C37.58732478 96.63765103 39.62258468 98.41505645 42 100 C42.804375 100.556875 43.60875 101.11375 44.4375 101.6875 C51.68797631 104.35872811 59.87820135 103.92849917 67 101 C69.26919787 99.54235525 69.26919787 99.54235525 71.25 97.875 C74.79904306 95 74.79904306 95 77 95 C78.07525194 92.34771188 79.09456151 89.71631546 80 87 C80.66 87 81.32 87 82 87 C82.1970263 78.6920576 82.24601262 71.05922174 80 63 C79.84789062 62.28199219 79.69578125 61.56398437 79.5390625 60.82421875 C79.1800943 58.84810248 79.1800943 58.84810248 77.3125 58 C76.549375 57.67 75.78625 57.34 75 57 C74.13375 56.38125 73.2675 55.7625 72.375 55.125 C68.12446799 52.4487391 63.69438472 50.74415875 59 49 C60.34849837 44.64029169 62.04907846 40.68658562 64.125 36.625 C64.66382813 35.56539062 65.20265625 34.50578125 65.7578125 33.4140625 C66.16773438 32.61742187 66.57765625 31.82078125 67 31 C67.66 31 68.32 31 69 31 C69.226875 29.989375 69.45375 28.97875 69.6875 27.9375 C70.72208872 24.23397227 72.48633319 21.65052342 74.87890625 18.67578125 C76.1537793 17.05056458 76.1537793 17.05056458 76.21875 14.96484375 C77 13 77 13 80.08984375 11.515625 C81.36680754 11.07712547 82.64978441 10.65584099 83.9375 10.25 C84.58396484 10.02957031 85.23042969 9.80914062 85.89648438 9.58203125 C90.6278387 8 90.6278387 8 93 8 C93 7.34 93 6.68 93 6 C94.28197266 5.47599609 94.28197266 5.47599609 95.58984375 4.94140625 C96.69457031 4.48636719 97.79929687 4.03132813 98.9375 3.5625 C100.03964844 3.11003906 101.14179688 2.65757813 102.27734375 2.19140625 C104.86568916 1.25575392 104.86568916 1.25575392 106 0 C107.99958364 -0.04080783 110.00045254 -0.04254356 112 0 C112.02891546 4.45831982 112.04676981 8.91661569 112.0625 13.375 C112.07087891 14.64601563 112.07925781 15.91703125 112.08789062 17.2265625 C112.09111328 18.43828125 112.09433594 19.65 112.09765625 20.8984375 C112.10289307 22.01911621 112.10812988 23.13979492 112.11352539 24.29443359 C112 27 112 27 111 29 C108.92578125 29.74609375 108.92578125 29.74609375 106.3125 30.4375 C102.26996774 31.57428095 98.69210129 32.95962823 95 35 C95.42152344 35.53109375 95.84304687 36.0621875 96.27734375 36.609375 C97.09912109 37.66898438 97.09912109 37.66898438 97.9375 38.75 C98.48277344 39.44609375 99.02804688 40.1421875 99.58984375 40.859375 C100.97425654 42.96092128 101.56286987 44.54321799 102 47 C102.66 47 103.32 47 104 47 C104.80710015 48.30306627 105.59470177 49.61820965 106.375 50.9375 C107.03628906 52.03384766 107.03628906 52.03384766 107.7109375 53.15234375 C110.87516431 60.14240844 111.36203687 67.35180238 111.3125 74.9375 C111.30831055 75.81704346 111.30412109 76.69658691 111.29980469 77.6027832 C111.19092563 83.8453756 110.50497748 89.23096096 108 95 C107.73316406 95.72703125 107.46632813 96.4540625 107.19140625 97.203125 C104.61777979 103.74585539 100.75203225 109.82320509 96 115 C94.34466571 115.69432745 92.67947419 116.36628977 91 117 C90.505 118.485 90.505 118.485 90 120 C87.02827774 122.7667759 86.25809375 123 82 123 C82 123.66 82 124.32 82 125 C80.35 125.33 78.7 125.66 77 126 C77 126.66 77 127.32 77 128 C75.68 128 74.36 128 73 128 C73 128.66 73 129.32 73 130 C58.95799429 134.04435648 43.87842188 133.55412385 30.78125 126.8671875 C24.63265821 123.29627457 17.884908 118.6586008 15 112 C14.34 112 13.68 112 13 112 C13 111.01 13 110.02 13 109 C12.40445313 108.938125 11.80890625 108.87625 11.1953125 108.8125 C8.05040745 107.64854938 7.42707422 105.9253755 5.875 103 C5.37742187 102.0925 4.87984375 101.185 4.3671875 100.25 C1.0067523 92.26176546 0.68571834 84.524459 0.75 75.9375 C0.74226563 74.90044922 0.73453125 73.86339844 0.7265625 72.79492188 C0.74615453 65.07076574 0.98620038 58.21711152 6 52 C7.01965427 49.67518826 8.02059602 47.34205301 9 45 C9.66 44.01 10.32 43.02 11 42 C11.66 42 12.32 42 13 42 C13.268125 41.360625 13.53625 40.72125 13.8125 40.0625 C15 38 15 38 18 37 C18 36.01 18 35.02 18 34 C17.01 33.814375 17.01 33.814375 16 33.625 C12.28521658 32.85108679 8.65359786 32.03518606 5 31 C4.67 30.34 4.34 29.68 4 29 C2.68 28.34 1.36 27.68 0 27 C0 18.09 0 9.18 0 0 Z " fill="#F4CA06" transform="translate(75,35)"/>
<path d="M0 0 C4.20768944 0.91857603 7.69567846 2.87090257 11.4375 4.9375 C19.78710287 9.65984773 19.78710287 9.65984773 29 12 C31.73366014 11.052394 31.73366014 11.052394 34.44921875 9.47265625 C35.46177734 8.92802734 36.47433594 8.38339844 37.51757812 7.82226562 C38.56365234 7.24154297 39.60972656 6.66082031 40.6875 6.0625 C42.77294972 4.9250975 44.86010467 3.79081416 46.94921875 2.66015625 C47.87049561 2.15105713 48.79177246 1.64195801 49.7409668 1.11743164 C52 0 52 0 54 0 C53.566875 1.2065625 53.566875 1.2065625 53.125 2.4375 C51.81642821 6.58131067 50.88782235 10.74978663 50 15 C51.32 15.66 52.64 16.32 54 17 C51.03 17.495 51.03 17.495 48 18 C47.9175 18.70125 47.835 19.4025 47.75 20.125 C46.82451185 23.67270457 45.05737852 25.97444336 43 29 C41.89503241 31.30278959 40.94949923 33.62625192 40 36 C39.34 36 38.68 36 38 36 C37.73445313 36.85851562 37.46890625 37.71703125 37.1953125 38.6015625 C35.98976199 42.02910808 34.52755614 45.14173798 32.875 48.375 C32.33617187 49.43460938 31.79734375 50.49421875 31.2421875 51.5859375 C30.83226562 52.38257813 30.42234375 53.17921875 30 54 C30.60585937 54.13535156 31.21171875 54.27070312 31.8359375 54.41015625 C39.9030058 56.48277226 47.23751117 59.98183443 52.0625 67 C54.1876882 73.80060224 56.31278079 85.37443842 53 92 C52.34 92 51.68 92 51 92 C50.814375 92.86625 50.814375 92.86625 50.625 93.75 C49.20317537 98.86856866 47.01325554 101.06757077 42.6875 104.1875 C41.74261719 104.88230469 40.79773438 105.57710938 39.82421875 106.29296875 C33.63937957 110.03124638 26.02479344 109.73988949 19 109 C13.24097724 106.99722296 9.525318 103.96155867 6 99 C5.29875 98.525625 4.5975 98.05125 3.875 97.5625 C0.82089271 95.01741059 0.17815333 91.730045 -0.22216797 87.8425293 C-0.34038236 85.41253862 -0.37119583 82.99526604 -0.375 80.5625 C-0.39949219 79.74201172 -0.42398438 78.92152344 -0.44921875 78.07617188 C-0.47729955 72.21196484 0.69727795 68.84964918 4 64 C4.66 64 5.32 64 6 64 C6.66 62.68 7.32 61.36 8 60 C9.32 60 10.64 60 12 60 C12 59.34 12 58.68 12 58 C18.5 54 18.5 54 23 54 C21.73482556 51.24726891 20.46314026 48.49787657 19.1875 45.75 C18.83107422 44.97269531 18.47464844 44.19539063 18.10742188 43.39453125 C16.34666214 39.61455163 14.61838136 36.27105706 12 33 C10.96898053 30.68020619 9.97063483 28.34570085 9 26 C8.443125 24.906875 7.88625 23.81375 7.3125 22.6875 C6 20 6 20 6 18 C3.03 17.67 0.06 17.34 -3 17 C-3 16.34 -3 15.68 -3 15 C-4.65 14.67 -6.3 14.34 -8 14 C-4.94736336 13.01879536 -3.05263664 13.01879536 0 14 C0 14.66 0 15.32 0 16 C1.98 16.33 3.96 16.66 6 17 C4.98747761 11.00480165 3.58822923 6.90391328 0 2 C0 1.34 0 0.68 0 0 Z " fill="#FEFDF9" transform="translate(104,30)"/>
<path d="M0 0 C4.20768944 0.91857603 7.69567846 2.87090257 11.4375 4.9375 C19.78710287 9.65984773 19.78710287 9.65984773 29 12 C31.73366014 11.052394 31.73366014 11.052394 34.44921875 9.47265625 C35.46177734 8.92802734 36.47433594 8.38339844 37.51757812 7.82226562 C38.56365234 7.24154297 39.60972656 6.66082031 40.6875 6.0625 C42.77294972 4.9250975 44.86010467 3.79081416 46.94921875 2.66015625 C47.87049561 2.15105713 48.79177246 1.64195801 49.7409668 1.11743164 C52 0 52 0 54 0 C53.39816251 2.02045442 52.72693904 4.02111039 52 6 C51.34 6.33 50.68 6.66 50 7 C48.67557339 9.39828603 47.44393483 11.78765047 46.25 14.25 C45.89873047 14.96349609 45.54746094 15.67699219 45.18554688 16.41210938 C42.01272844 22.89018694 38.97131219 29.42709729 36 36 C35.34 36 34.68 36 34 36 C33.9175 36.70125 33.835 37.4025 33.75 38.125 C32.82861136 41.65698979 31.07354186 44.01928357 29 47 C28.67 47.99 28.34 48.98 28 50 C27.34 50 26.68 50 26 50 C25.34 48.02 24.68 46.04 24 44 C23.34 44 22.68 44 22 44 C18.30493274 36.77130045 18.30493274 36.77130045 16.9375 33.3125 C16.03141104 30.90630383 16.03141104 30.90630383 14.5 28.5 C13 26 13 26 12 23.375 C11.18171188 20.99131606 11.18171188 20.99131606 9.5625 19.625 C7.65748652 17.64378598 6.83813346 15.49939609 5.82421875 12.97265625 C4.65337863 10.17040858 3.25916007 7.49449625 1.8671875 4.796875 C1 3 1 3 0 0 Z " fill="#F4CB0B" transform="translate(104,30)"/>
<path d="M0 0 C2.64 0.33 5.28 0.66 8 1 C8 1.66 8 2.32 8 3 C10.97 3.495 10.97 3.495 14 4 C14.33 3.34 14.66 2.68 15 2 C15.2475 2.78375 15.495 3.5675 15.75 4.375 C16.70367742 7.12875018 16.70367742 7.12875018 18.9375 7.8125 C21.94170735 9.54219514 22.28541311 11.91332194 23.2890625 15.125 C23.9308084 17.20446121 23.9308084 17.20446121 26 19 C26.76065041 20.64344907 27.46343098 22.31422412 28.125 24 C28.47820312 24.886875 28.83140625 25.77375 29.1953125 26.6875 C30 29 30 29 30 31 C30.66 31 31.32 31 32 31 C34 34 34 34 34 37 C34.99 37.495 34.99 37.495 36 38 C35.01 38 34.02 38 33 38 C33 37.01 33 36.02 33 35 C32.34 35 31.68 35 31 35 C31.33 37.31 31.66 39.62 32 42 C30.35 42 28.7 42 27 42 C28.98 41.505 28.98 41.505 31 41 C29.73482556 38.24726891 28.46314026 35.49787657 27.1875 32.75 C26.83107422 31.97269531 26.47464844 31.19539063 26.10742188 30.39453125 C24.34666214 26.61455163 22.61838136 23.27105706 20 20 C18.96898053 17.68020619 17.97063483 15.34570085 17 13 C16.443125 11.906875 15.88625 10.81375 15.3125 9.6875 C14 7 14 7 14 5 C11.03 4.67 8.06 4.34 5 4 C5 3.34 5 2.68 5 2 C3.35 1.67 1.7 1.34 0 1 C0 0.67 0 0.34 0 0 Z " fill="#F9F0BF" transform="translate(96,43)"/>
<path d="M0 0 C1.53445094 3.06890187 0.54984289 5.70094266 0 9 C1.32 9.66 2.64 10.32 4 11 C2.02 11.33 0.04 11.66 -2 12 C-2.0825 12.70125 -2.165 13.4025 -2.25 14.125 C-3.17548815 17.67270457 -4.94262148 19.97444336 -7 23 C-8.10496759 25.30278959 -9.05050077 27.62625192 -10 30 C-10.66 30 -11.32 30 -12 30 C-12.226875 30.78375 -12.45375 31.5675 -12.6875 32.375 C-14.40660933 37.12301625 -16.68084721 41.52102552 -19 46 C-19.99 45.34 -20.98 44.68 -22 44 C-21.49047288 39.54163771 -19.80244599 37.41548105 -17 34 C-16.22166466 31.81785432 -16.22166466 31.81785432 -16 30 C-15.34 30 -14.68 30 -14 30 C-13.731875 29.154375 -13.46375 28.30875 -13.1875 27.4375 C-10.83637909 20.63162369 -7.71284118 14.39136469 -4.3125 8.0625 C-3.89677734 7.28326172 -3.48105469 6.50402344 -3.05273438 5.70117188 C-2.03769193 3.79942568 -1.01920249 1.89951995 0 0 Z " fill="#FBF2C5" transform="translate(154,36)"/>
<path d="M0 0 C0.66 0 1.32 0 2 0 C2.66 2.64 3.32 5.28 4 8 C4.33 8 4.66 8 5 8 C5.05807043 11.10408807 5.09361914 14.2080364 5.125 17.3125 C5.15013672 18.63411133 5.15013672 18.63411133 5.17578125 19.98242188 C5.18222656 20.82998047 5.18867188 21.67753906 5.1953125 22.55078125 C5.20578613 23.33106689 5.21625977 24.11135254 5.22705078 24.9152832 C5 27 5 27 3 30 C2.30686092 31.65583225 1.63525576 33.32110979 1 35 C0.67 35 0.34 35 0 35 C0.16242188 33.88753906 0.32484375 32.77507812 0.4921875 31.62890625 C1.10326934 26.72405679 1.14732306 21.87461623 1.125 16.9375 C1.12886719 16.07833984 1.13273438 15.21917969 1.13671875 14.33398438 C1.12925535 9.44919022 0.82332147 4.81577718 0 0 Z " fill="#FCF2C9" transform="translate(184,93)"/>
<path d="M0 0 C1.04449911 3.13349732 0.93423645 3.98968256 0 7 C-0.66 7 -1.32 7 -2 7 C-2.226875 7.78375 -2.45375 8.5675 -2.6875 9.375 C-4.40660933 14.12301625 -6.68084721 18.52102552 -9 23 C-9.99 22.34 -10.98 21.68 -12 21 C-11.49047288 16.54163771 -9.80244599 14.41548105 -7 11 C-6.22166466 8.81785432 -6.22166466 8.81785432 -6 7 C-5.34 7 -4.68 7 -4 7 C-3.71125 6.030625 -3.4225 5.06125 -3.125 4.0625 C-2 1 -2 1 0 0 Z " fill="#FCF7E0" transform="translate(144,59)"/>
<path d="M0 0 C0.66 0.33 1.32 0.66 2 1 C1.67 1.66 1.34 2.32 1 3 C1.12375 4.3921875 1.12375 4.3921875 1.25 5.8125 C1 9 1 9 -1.375 11.8125 C-4 14 -4 14 -6 15 C-6.90725434 17.11327425 -6.90725434 17.11327425 -7.625 19.5625 C-7.88539062 20.38878906 -8.14578125 21.21507813 -8.4140625 22.06640625 C-8.60742188 22.70449219 -8.80078125 23.34257813 -9 24 C-10.4483791 21.1032418 -9.4724969 18.95675015 -8.66796875 15.94921875 C-7.84699707 13.55351776 -6.58424082 11.96445861 -5 10 C-3.98034573 7.67518826 -2.97940398 5.34205301 -2 3 C-1.34 2.01 -0.68 1.02 0 0 Z " fill="#F6D33A" transform="translate(86,77)"/>
<path d="M0 0 C2.64 0.33 5.28 0.66 8 1 C8 1.66 8 2.32 8 3 C10.97 3.495 10.97 3.495 14 4 C14.33 3.34 14.66 2.68 15 2 C20.74031891 10.07744875 20.74031891 10.07744875 20 16 C17.02753198 13.45217026 15.58464712 10.54659117 14 7 C14 6.34 14 5.68 14 5 C11.03 4.67 8.06 4.34 5 4 C5 3.34 5 2.68 5 2 C3.35 1.67 1.7 1.34 0 1 C0 0.67 0 0.34 0 0 Z " fill="#FBF9E3" transform="translate(96,43)"/>
<path d="M0 0 C0 8.91 0 17.82 0 27 C-0.33 27 -0.66 27 -1 27 C-1.68271293 18.64895793 -2.15392039 10.38011029 -2 2 C-2.77730469 2.33773437 -3.55460938 2.67546875 -4.35546875 3.0234375 C-7.18824089 4.06951288 -8.23309576 4.02477935 -11 3 C-6.75755532 0.00533317 -5.65814459 0 0 0 Z " fill="#F6DE68" transform="translate(187,35)"/>
<path d="M0 0 C0.53625 0.226875 1.0725 0.45375 1.625 0.6875 C0.635 0.6875 -0.355 0.6875 -1.375 0.6875 C-1.375 1.3475 -1.375 2.0075 -1.375 2.6875 C-0.385 3.0175 0.605 3.3475 1.625 3.6875 C0.985625 4.1 0.34625 4.5125 -0.3125 4.9375 C-2.58490931 6.86560487 -2.97696439 7.80174181 -3.375 10.6875 C-5.875 8.375 -5.875 8.375 -8.375 5.6875 C-8.375 4.6975 -8.375 3.7075 -8.375 2.6875 C-2.95961538 -0.38942308 -2.95961538 -0.38942308 0 0 Z " fill="#FCFAE7" transform="translate(178.375,66.3125)"/>
<path d="M0 0 C6.48529412 8.33823529 6.48529412 8.33823529 6 14 C5.38125 13.814375 4.7625 13.62875 4.125 13.4375 C1.95839822 12.76313824 1.95839822 12.76313824 0 14 C-0.79953138 10.71303767 -1.09658936 9.28976808 0 6 C0.03920815 4.00038436 0.04443347 1.99950636 0 0 Z " fill="#F3CF26" transform="translate(178,82)"/>
<path d="M0 0 C7.625 0.875 7.625 0.875 11 2 C13.55334435 2.09582087 16.07268016 2.13939278 18.625 2.125 C19.31851563 2.12886719 20.01203125 2.13273438 20.7265625 2.13671875 C24.15070421 2.43454166 24.15070421 2.43454166 27 1 C28.51928038 0.92820036 30.04167482 0.91607993 31.5625 0.9375 C32.38878906 0.94652344 33.21507812 0.95554688 34.06640625 0.96484375 C34.70449219 0.97644531 35.34257812 0.98804688 36 1 C30.10944159 4.15565629 24.81465872 4.21172211 18.25 4.25 C16.94675781 4.2809375 16.94675781 4.2809375 15.6171875 4.3125 C9.71194746 4.34796691 5.40611485 3.38874842 0 1 C0 0.67 0 0.34 0 0 Z " fill="#F8E483" transform="translate(112,163)"/>
<path d="M0 0 C0.99 0.33 1.98 0.66 3 1 C0.08544541 4.34634046 -1.63520319 5.41148807 -6 6 C-8.26995419 6.06652855 -10.54168695 6.08543751 -12.8125 6.0625 C-13.97394531 6.05347656 -15.13539062 6.04445312 -16.33203125 6.03515625 C-17.21246094 6.02355469 -18.09289062 6.01195312 -19 6 C-19.33 5.34 -19.66 4.68 -20 4 C-13.73 3.67 -7.46 3.34 -1 3 C-0.67 2.01 -0.34 1.02 0 0 Z " fill="#FBF0BB" transform="translate(142,133)"/>
<path d="M0 0 C3.48539917 0.64544429 6.02819057 2.10134397 9 4 C7.79618552 6.49361571 6.54571278 8.68143083 5 11 C4.35165346 9.730447 3.70642185 8.45930294 3.0625 7.1875 C2.70285156 6.47980469 2.34320313 5.77210937 1.97265625 5.04296875 C1 3 1 3 0 0 Z " fill="#F4CB12" transform="translate(104,30)"/>
<path d="M0 0 C1.77480418 2.66220627 2.53804407 3.95109085 3 7 C2.84273437 7.57363281 2.68546875 8.14726563 2.5234375 8.73828125 C1.85645633 11.62023719 1.90538085 14.295038 1.9375 17.25 C1.95103516 18.86648437 1.95103516 18.86648437 1.96484375 20.515625 C1.97644531 21.33546875 1.98804688 22.1553125 2 23 C1.67 23 1.34 23 1 23 C0.86722656 21.89140625 0.73445312 20.7828125 0.59765625 19.640625 C0.41940243 18.1770673 0.24100972 16.71352651 0.0625 15.25 C-0.02451172 14.52039063 -0.11152344 13.79078125 -0.20117188 13.0390625 C-0.62027409 9.62415558 -1.117274 6.32396457 -2 3 C-1.34 3 -0.68 3 0 3 C0 2.01 0 1.02 0 0 Z " fill="#F6D542" transform="translate(157,93)"/>
<path d="M0 0 C0.66 0.33 1.32 0.66 2 1 C1.24317654 3.15081449 0.46910913 5.29556819 -0.3125 7.4375 C-0.74175781 8.63246094 -1.17101562 9.82742187 -1.61328125 11.05859375 C-2.07089844 12.02925781 -2.52851563 12.99992187 -3 14 C-3.99 14.33 -4.98 14.66 -6 15 C-6 15.99 -6 16.98 -6 18 C-6.66 18 -7.32 18 -8 18 C-6.65150163 13.64029169 -4.95092154 9.68658562 -2.875 5.625 C-2.33617187 4.56539063 -1.79734375 3.50578125 -1.2421875 2.4140625 C-0.83226562 1.61742188 -0.42234375 0.82078125 0 0 Z " fill="#F5D955" transform="translate(142,66)"/>
<path d="M0 0 C0.66 0 1.32 0 2 0 C4 3 4 3 4 6 C4.66 6.33 5.32 6.66 6 7 C5.01 7 4.02 7 3 7 C3 6.01 3 5.02 3 4 C2.34 4 1.68 4 1 4 C1.33 6.31 1.66 8.62 2 11 C0.35 11 -1.3 11 -3 11 C-1.68 10.67 -0.36 10.34 1 10 C0.46375 9.0925 -0.0725 8.185 -0.625 7.25 C-2 4 -2 4 -1.1875 1.625 C-0.5996875 0.820625 -0.5996875 0.820625 0 0 Z " fill="#FAEBA6" transform="translate(126,74)"/>
<path d="M0 0 C0.33 0 0.66 0 1 0 C1.06058594 1.31355469 1.12117188 2.62710938 1.18359375 3.98046875 C1.26803256 5.71615541 1.35267888 7.45183198 1.4375 9.1875 C1.47681641 10.05181641 1.51613281 10.91613281 1.55664062 11.80664062 C1.76347016 15.95914122 2.00103531 19.94537862 3 24 C2.01 24 1.02 24 0 24 C0 16.08 0 8.16 0 0 Z " fill="#FBEAA4" transform="translate(75,104)"/>
<path d="M0 0 C1.53445094 3.06890187 0.54984289 5.70094266 0 9 C1.32 9.66 2.64 10.32 4 11 C1.69 11.66 -0.62 12.32 -3 13 C-2.88490339 11.58249437 -2.75746342 10.16598831 -2.625 8.75 C-2.55539063 7.96109375 -2.48578125 7.1721875 -2.4140625 6.359375 C-1.98492887 3.914123 -1.21399362 2.15163097 0 0 Z " fill="#FBF3CF" transform="translate(154,36)"/>
<path d="M0 0 C1.60725635 3.21451269 1.05748185 6.43612536 1 10 C-0.66666667 10 -2.33333333 10 -4 10 C-3.52449439 8.51965236 -3.04448784 7.04074979 -2.5625 5.5625 C-2.29566406 4.73878906 -2.02882812 3.91507813 -1.75390625 3.06640625 C-1 1 -1 1 0 0 Z " fill="#FAEEB0" transform="translate(151,42)"/>
<path d="M0 0 C-0.66 1.98 -1.32 3.96 -2 6 C-3.98 5.34 -5.96 4.68 -8 4 C-2.7826087 0 -2.7826087 0 0 0 Z " fill="#F5D23F" transform="translate(158,30)"/>
<path d="M0 0 C5.54621849 -0.3697479 5.54621849 -0.3697479 7.6875 1.375 C8.120625 1.91125 8.55375 2.4475 9 3 C9.99 3.66 10.98 4.32 12 5 C5.84765625 4.4140625 5.84765625 4.4140625 4 4 C3.67 3.34 3.34 2.68 3 2 C2.01 1.34 1.02 0.68 0 0 Z " fill="#F5DD64" transform="translate(76,62)"/>
<path d="M0 0 C-1.98 0.99 -3.96 1.98 -6 3 C-5.34 4.65 -4.68 6.3 -4 8 C-4.99 8 -5.98 8 -7 8 C-7.625 5.125 -7.625 5.125 -8 2 C-5.44123378 -0.55876622 -3.37797483 -1.68898741 0 0 Z " fill="#F4DB58" transform="translate(176,67)"/>
<path d="M0 0 C1.2380014 3.57644848 0.74926071 6.33694766 0 10 C-0.99 9.34 -1.98 8.68 -3 8 C-2.45276317 4.62537285 -1.9451 2.91765 0 0 Z " fill="#FCEFBB" transform="translate(135,72)"/>
<path d="M0 0 C0.66 0 1.32 0 2 0 C2 3 2 3 0.6875 4.38671875 C-0.875 5.59114583 -2.4375 6.79557292 -4 8 C-4.33 6.35 -4.66 4.7 -5 3 C-3.35 2.67 -1.7 2.34 0 2 C0 1.34 0 0.68 0 0 Z " fill="#FCF7DC" transform="translate(91,69)"/>
<path d="M0 0 C2.97 0.495 2.97 0.495 6 1 C6 1.66 6 2.32 6 3 C-0.28571429 5.42857143 -0.28571429 5.42857143 -4 4 C-3.01 3.67 -2.02 3.34 -1 3 C-0.67 2.01 -0.34 1.02 0 0 Z " fill="#F5DA5F" transform="translate(180,61)"/>
<path d="M0 0 C2.97 0.495 2.97 0.495 6 1 C6 1.66 6 2.32 6 3 C5.01 3 4.02 3 3 3 C3 4.32 3 5.64 3 7 C2.34 7 1.68 7 1 7 C0.67 4.69 0.34 2.38 0 0 Z " fill="#F4CD23" transform="translate(104,47)"/>
<path d="M0 0 C2.64 0.33 5.28 0.66 8 1 C8 1.66 8 2.32 8 3 C8.99 3.33 9.98 3.66 11 4 C8.50907189 5.24546405 7.58919267 4.7767578 5 4 C5 3.34 5 2.68 5 2 C3.35 1.67 1.7 1.34 0 1 C0 0.67 0 0.34 0 0 Z " fill="#F7EA9A" transform="translate(96,43)"/>
<path d="M0 0 C3.3566285 2.23775234 3.57996014 2.93320048 4.6875 6.625 C4.93886719 7.44226562 5.19023438 8.25953125 5.44921875 9.1015625 C5.72185547 10.04128906 5.72185547 10.04128906 6 11 C3.47154472 9.73577236 3.23577236 8.47154472 2 6 C1.34 5.67 0.68 5.34 0 5 C0 3.35 0 1.7 0 0 Z " fill="#FAEDB5" transform="translate(104,32)"/>
<path d="M0 0 C0.33 0.66 0.66 1.32 1 2 C-5.625 4.875 -5.625 4.875 -9 6 C-8.67 4.68 -8.34 3.36 -8 2 C-5.36 1.34 -2.72 0.68 0 0 Z " fill="#EFD237" transform="translate(126,82)"/>
<path d="M0 0 C0.99 0.33 1.98 0.66 3 1 C3.6875 3.0625 3.6875 3.0625 4 5 C3.01 5.33 2.02 5.66 1 6 C0.34 4.35 -0.32 2.7 -1 1 C-0.67 0.67 -0.34 0.34 0 0 Z " fill="#FDF6DD" transform="translate(119,63)"/>
<path d="M0 0 C0.66 0 1.32 0 2 0 C2.33 1.32 2.66 2.64 3 4 C2.01 4.33 1.02 4.66 0 5 C-1.32 3.68 -2.64 2.36 -4 1 C-3.01 1.33 -2.02 1.66 -1 2 C-0.67 1.34 -0.34 0.68 0 0 Z " fill="#F5D32F" transform="translate(100,153)"/>
<path d="M0 0 C0.66 0 1.32 0 2 0 C1.67 1.65 1.34 3.3 1 5 C0.34 5 -0.32 5 -1 5 C-1 5.99 -1 6.98 -1 8 C-1.66 8 -2.32 8 -3 8 C-1.125 2.25 -1.125 2.25 0 0 Z " fill="#EFD338" transform="translate(137,76)"/>
<path d="M0 0 C0.66 0.99 1.32 1.98 2 3 C0.35 4.65 -1.3 6.3 -3 8 C-3 4.42424104 -1.91159393 2.94704065 0 0 Z " fill="#F5CF29" transform="translate(150,53)"/>
<path d="M0 0 C3.35595828 0.59927826 5.37801226 1.84622436 8 4 C6.02 4 4.04 4 2 4 C1.34 2.68 0.68 1.36 0 0 Z " fill="#F4CF3B" transform="translate(104,30)"/>
<path d="M0 0 C0.66 0 1.32 0 2 0 C5 5.75 5 5.75 5 8 C4.34 8 3.68 8 3 8 C0.95830515 5.09451118 0 3.59857954 0 0 Z " fill="#FBEAA8" transform="translate(152,94)"/>
<path d="M0 0 C0 0.99 0 1.98 0 3 C0.66 3.33 1.32 3.66 2 4 C-1.73487777 3.5020163 -3.81237635 3.12508244 -7 1 C-2.25 0 -2.25 0 0 0 Z " fill="#FDF5D5" transform="translate(82,33)"/>
</svg>
