<?xml version="1.0" encoding="UTF-8"?>
<svg version="1.1" xmlns="http://www.w3.org/2000/svg" width="225" height="224">
<path d="M0 0 C74.25 0 148.5 0 225 0 C225 73.92 225 147.84 225 224 C150.75 224 76.5 224 0 224 C0 150.08 0 76.16 0 0 Z " fill="#0146FF" transform="translate(0,0)"/>
<path d="M0 0 C74.25 0 148.5 0 225 0 C225 73.92 225 147.84 225 224 C150.75 224 76.5 224 0 224 C0 150.08 0 76.16 0 0 Z M42.11328125 48.55078125 C22.26325808 71.55626097 17.02820318 97.18574177 19 127 C19.62809059 132.6249689 21.00766437 137.68906982 23 143 C23.24137695 143.65564941 23.48275391 144.31129883 23.73144531 144.98681641 C33.52780353 171.03034232 52.28597326 188.59048656 77.20410156 200.19433594 C80.73819964 201.77977961 84.26862561 202.98785617 88 204 C88.62471191 204.1762793 89.24942383 204.35255859 89.89306641 204.53417969 C113.7196785 210.57862102 139.92782244 205.46743327 161.0625 193.75 C167.19831038 190.05566391 172.64070769 185.73730767 178 181 C178.63550781 180.44828125 179.27101562 179.8965625 179.92578125 179.328125 C195.79655242 164.5883743 205.94853512 141.26568528 207.12255859 119.75439453 C208.02467732 93.46173432 201.33981592 70.30724833 184 50 C183.36578125 49.17242187 182.7315625 48.34484375 182.078125 47.4921875 C168.75652221 31.5162804 145.55969514 20.47671827 125 18 C93.2012528 15.73857582 64.30336694 25.30595657 42.11328125 48.55078125 Z " fill="#FEFEFF" transform="translate(0,0)"/>
<path d="M0 0 C-0.35876497 2.71720353 -0.72831656 3.77007002 -2.85546875 5.5703125 C-4.00982422 6.33988281 -4.00982422 6.33988281 -5.1875 7.125 C-11.08700886 11.47200653 -14.68989439 17.06968317 -17 24 C-18.08647172 32.8698839 -15.05957255 39.37453842 -10 46.5 C-2.47260146 55.58014015 8.21499526 61.5660867 18.375 67.25 C20.65407511 68.54742331 22.93271325 69.84561446 25.2109375 71.14453125 C26.34370117 71.78729004 27.47646484 72.43004883 28.64355469 73.09228516 C66.44008838 94.57483638 66.44008838 94.57483638 73 110 C74.21478864 119.94813404 73.24843361 127.86978737 67.5625 136.07421875 C63.13043754 141.66756681 57.45148341 145.95505208 51 149 C48.1640625 149.1875 48.1640625 149.1875 46 149 C46.46145132 146.11592924 47.52868745 143.9788418 49 141.5 C50.47106557 138.98426468 51.63379966 136.92960274 52 134 C52.144375 132.96875 52.28875 131.9375 52.4375 130.875 C51.50459165 122.61209744 46.3903507 116.94276806 40.24853516 111.73144531 C36.532865 108.87025826 32.54280097 106.62553641 28.4375 104.375 C27.53781494 103.8699292 26.63812988 103.3648584 25.71118164 102.84448242 C21.80917564 100.65617485 17.89346381 98.49305004 13.9765625 96.33154297 C-8.80521696 83.74373134 -8.80521696 83.74373134 -18 76 C-19.3303125 74.91138672 -19.3303125 74.91138672 -20.6875 73.80078125 C-30.43132425 65.49243111 -37.99802995 55.5453241 -39.23828125 42.4921875 C-39.5632736 31.03193101 -35.73857302 22.35575982 -28 14 C-20.7724901 6.54709997 -10.65773266 0 0 0 Z " fill="#FBFCFF" transform="translate(94,36)"/>
<path d="M0 0 C1.39613065 0.14295891 2.79189308 0.28951558 4.1875 0.4375 C4.96480469 0.51871094 5.74210937 0.59992187 6.54296875 0.68359375 C9 1 9 1 11.26171875 1.515625 C14.29558103 2.05228537 17.20793054 2.15226206 20.28222656 2.23925781 C29.90072762 2.53996126 38.55816525 3.57482176 46.625 9.3125 C49.50045227 12.56630125 49.83216361 14.72017197 50 19 C44.76824163 19.38281159 41.62197306 18.21854707 37 16 C37.58234725 18.46383376 37.58234725 18.46383376 39 21 C41.66585129 22.50559221 41.66585129 22.50559221 44.8125 23.5 C53.04443672 26.67221091 53.04443672 26.67221091 56 31 C56.93820053 35.2219024 55.81863798 37.66787445 53.6875 41.25 C51.89786498 44.02312813 50.83783176 45.10811216 48 47 C44.03297705 46.92787231 41.80968445 46.76205596 38.875 44 C37 41 37 41 35.89453125 38.73828125 C33.8113327 34.15249229 33.8113327 34.15249229 30.125 30.9765625 C28.00296065 30.33934435 28.00296065 30.33934435 25 30 C25.11458693 31.43836751 25.24209116 32.87570966 25.375 34.3125 C25.44460937 35.11300781 25.51421875 35.91351563 25.5859375 36.73828125 C25.89564426 39.27224441 25.89564426 39.27224441 28 42 C28.39930774 45.09463501 28.65047463 47.04120388 28 50 C24.97396305 53.54267741 23.10785537 54.82195182 18.5 55.5625 C13.77513181 54.80314618 10.64477474 53.25763666 7.7734375 49.31640625 C4.55103837 43.92642209 3.86056334 39.81832802 3.875 33.625 C3.87113281 31.97371094 3.87113281 31.97371094 3.8671875 30.2890625 C3.99585528 27.10264286 4.44724719 24.13645343 5 21 C5.55865028 15.38955504 6.01292649 10.67397847 2.5 6 C1.675 5.01 0.85 4.02 0 3 C0 2.01 0 1.02 0 0 Z " fill="#FAFBFF" transform="translate(115,40)"/>
<path d="M0 0 C3.73699893 0.21826719 4.83274694 0.81413286 7.38671875 3.65234375 C8.16777448 4.73736364 8.93441173 5.83288501 9.6875 6.9375 C13.65267261 13.07775438 13.65267261 13.07775438 20 16 C20.2475 15.13375 20.495 14.2675 20.75 13.375 C22.09135258 9.75334802 23.60552428 7.02830753 26 4 C28.25 3.125 28.25 3.125 30 3 C33.12821727 7.34522234 33.6833896 11.1372749 34.1875 16.3125 C34.3102832 17.42334961 34.3102832 17.42334961 34.43554688 18.55664062 C34.63442588 20.36994923 34.81869827 22.18484969 35 24 C39.29227677 22.98546185 43.41552932 21.87845501 47.5625 20.375 C51.56892027 18.99083744 54.78390349 18.73088746 59 19 C58.73670295 25.05583206 56.58008686 28.69273005 53.1796875 33.66796875 C51.83178154 35.88288496 51.83178154 35.88288496 52.03515625 38.140625 C53.38918655 40.75001133 54.9143623 41.33748363 57.5625 42.5625 C58.45839844 42.98015625 59.35429688 43.3978125 60.27734375 43.828125 C63.81489187 45.35074255 67.36695691 46.72170706 71 48 C70.625 49.9375 70.625 49.9375 70 52 C60.60489128 56.69755436 45.39549921 52.12204609 36 49 C20.43708965 43.18261404 9.51118974 31.1495174 2.0625 16.5625 C-0.36968731 10.99867282 -0.52118453 5.98783118 0 0 Z " fill="#F9FAFF" transform="translate(47,137)"/>
</svg>
