<?xml version="1.0" encoding="UTF-8"?>
<svg version="1.1" xmlns="http://www.w3.org/2000/svg" width="200" height="200">
<path d="M0 0 C66 0 132 0 200 0 C200 66 200 132 200 200 C134 200 68 200 0 200 C0 134 0 68 0 0 Z " fill="#FDFEFE" transform="translate(0,0)"/>
<path d="M0 0 C1.13695313 -0.01224609 2.27390625 -0.02449219 3.4453125 -0.03710938 C9.6886307 -0.04797362 15.0324999 0.34527285 21 2.1875 C21.97324219 2.45949219 22.94648437 2.73148438 23.94921875 3.01171875 C35.58435777 6.67985816 45.70459241 12.31395208 55 20.1875 C55.66386719 20.70699219 56.32773438 21.22648437 57.01171875 21.76171875 C73.84028113 35.4163283 82.0520257 56.27871929 85 77.1875 C85.81216444 88.95722734 84.38557113 99.89402549 81 111.1875 C80.34 111.8475 79.68 112.5075 79 113.1875 C78.18395001 111.2723421 77.37229368 109.35531166 76.5625 107.4375 C75.88380859 105.83648437 75.88380859 105.83648437 75.19140625 104.203125 C74.26020447 101.8461159 73.5215928 99.65757165 73 97.1875 C71.68 97.1875 70.36 97.1875 69 97.1875 C67 94.1875 67 94.1875 67 91.1875 C66.34 91.1875 65.68 91.1875 65 91.1875 C65 90.5275 65 89.8675 65 89.1875 C64.0409375 89.001875 64.0409375 89.001875 63.0625 88.8125 C62.0415625 88.503125 62.0415625 88.503125 61 88.1875 C60.67 87.5275 60.34 86.8675 60 86.1875 C59.175 85.713125 58.35 85.23875 57.5 84.75 C55 83.1875 55 83.1875 54 80.1875 C51.67836145 78.74195147 49.4170587 77.44158367 47 76.1875 C46.01 75.5996875 46.01 75.5996875 45 75 C42.85225288 74.02351706 42.85225288 74.02351706 39.75 73.8125 C35.85881288 73.16396881 33.40352628 71.94660565 29.9921875 70.1015625 C27.0972935 68.77331702 24.13936456 68.56422375 21 68.1875 C20.34 67.5275 19.68 66.8675 19 66.1875 C17.07628134 65.88270129 17.07628134 65.88270129 14.85742188 65.92871094 C13.57599304 65.91925446 13.57599304 65.91925446 12.26867676 65.90960693 C11.34470093 65.9136554 10.4207251 65.91770386 9.46875 65.921875 C8.52189331 65.91996155 7.57503662 65.9180481 6.5994873 65.91607666 C4.59545628 65.91471427 2.59141646 65.91841444 0.58740234 65.92675781 C-2.48750553 65.93745653 -5.56182914 65.92686428 -8.63671875 65.9140625 C-10.58073046 65.91538409 -12.52474181 65.91794646 -14.46875 65.921875 C-15.39272583 65.91782654 -16.31670166 65.91377808 -17.26867676 65.90960693 C-18.12296265 65.91591125 -18.97724854 65.92221558 -19.85742188 65.92871094 C-20.61083862 65.93030212 -21.36425537 65.93189331 -22.14050293 65.93353271 C-24.24589007 66.03011318 -24.24589007 66.03011318 -26 68.1875 C-29.13054533 68.88765709 -32.24924272 69.44276534 -35.4140625 69.95507812 C-39.40226728 70.66557524 -41.92501649 71.56597028 -45 74.1875 C-47.75 74.875 -47.75 74.875 -50 75.1875 C-50 75.8475 -50 76.5075 -50 77.1875 C-51.71659432 78.54553676 -53.53184882 79.68580258 -55.37109375 80.87109375 C-57.29953716 82.18763286 -57.29953716 82.18763286 -58 85.1875 C-59.71050188 85.91117387 -61.42328161 86.63046055 -63.15234375 87.30859375 C-67.40953728 89.33368581 -70.24740689 92.88568054 -72 97.1875 C-72.99 97.1875 -73.98 97.1875 -75 97.1875 C-75.16822266 97.98414062 -75.16822266 97.98414062 -75.33984375 98.796875 C-76.16858677 101.79800358 -77.34759982 104.57158163 -78.5625 107.4375 C-79.01753906 108.51515625 -79.47257812 109.5928125 -79.94140625 110.703125 C-80.29074219 111.52296875 -80.64007813 112.3428125 -81 113.1875 C-87.0217407 107.1657593 -87.4090504 92.66512385 -87.4375 84.4375 C-87.13599234 64.27823418 -79.8071671 45.57959991 -67 30.1875 C-66.54109375 29.59453125 -66.0821875 29.0015625 -65.609375 28.390625 C-61.15200263 22.80610099 -55.66995336 18.48963443 -50 14.1875 C-49.16726562 13.55457031 -48.33453125 12.92164063 -47.4765625 12.26953125 C-33.19581098 2.31694596 -16.98141938 0.00962665 0 0 Z " fill="#0C89CF" transform="translate(101,14.8125)"/>
<path d="M0 0 C1.02547943 -0.00139984 2.05095886 -0.00279968 3.10751343 -0.00424194 C29.18039671 0.02488751 53.51076678 4.07655544 78.25 12.4375 C73.18288679 29.60363864 58.59869256 44.15560374 43.34765625 52.828125 C21.91006476 63.96594051 -2.68489215 67.92520366 -26.28125 60.765625 C-36.26515341 56.94295928 -45.21754255 51.91039876 -53.75 45.4375 C-55.0803125 44.4784375 -55.0803125 44.4784375 -56.4375 43.5 C-65.2959681 35.59920412 -73.00637497 25.30830737 -77.75 14.4375 C-77.75 13.7775 -77.75 13.1175 -77.75 12.4375 C-69.26323531 9.33097398 -60.73828518 6.80155012 -51.9375 4.75 C-51.09880371 4.54802002 -50.26010742 4.34604004 -49.39599609 4.13793945 C-33.12135754 0.46691097 -16.61341216 -0.00218432 0 0 Z " fill="#027BC7" transform="translate(99.75,121.5625)"/>
<path d="M0 0 C0.85428589 -0.00630432 1.70857178 -0.01260864 2.58874512 -0.019104 C3.51272095 -0.01505554 4.43669678 -0.01100708 5.38867188 -0.00683594 C6.80895691 -0.00970612 6.80895691 -0.00970612 8.25793457 -0.01263428 C10.26196559 -0.01399667 12.26600542 -0.0102965 14.27001953 -0.00195312 C17.34492741 0.00874559 20.41925101 -0.00184666 23.49414062 -0.01464844 C25.43815234 -0.01332685 27.38216368 -0.01076448 29.32617188 -0.00683594 C30.25014771 -0.0108844 31.17412354 -0.01493286 32.12609863 -0.019104 C32.98038452 -0.01279968 33.83467041 -0.00649536 34.71484375 0 C35.4682605 0.00159119 36.22167725 0.00318237 36.9979248 0.00482178 C38.85742188 0.25878906 38.85742188 0.25878906 40.85742188 2.25878906 C43.11841782 2.82948106 43.11841782 2.82948106 45.66992188 3.19628906 C49.7521636 3.93586781 52.30364108 5.12652059 55.85742188 7.25878906 C57.51637664 7.60993449 59.18465058 7.91831383 60.85742188 8.19628906 C65.2206616 8.96665335 67.58222081 10.17624689 70.85742188 13.25878906 C71.57929688 13.58878906 72.30117187 13.91878906 73.04492188 14.25878906 C75.36784537 15.54040202 75.6918348 16.92761492 76.85742188 19.25878906 C78.87412015 20.3922944 78.87412015 20.3922944 80.85742188 21.25878906 C81.18742188 21.91878906 81.51742187 22.57878906 81.85742188 23.25878906 C82.84742188 23.58878906 83.83742187 23.91878906 84.85742188 24.25878906 C84.85742188 24.91878906 84.85742188 25.57878906 84.85742188 26.25878906 C85.51742187 26.25878906 86.17742187 26.25878906 86.85742188 26.25878906 C87.84742188 29.22878906 87.84742188 29.22878906 88.85742188 32.25878906 C90.17742187 32.25878906 91.49742187 32.25878906 92.85742188 32.25878906 C96.02653261 38.1615602 98.69425176 43.62871943 99.85742188 50.25878906 C99.52742187 51.24878906 99.19742188 52.23878906 98.85742188 53.25878906 C94.27212022 54.31171018 91.46319552 54.12897663 87.04492188 52.57128906 C65.87967646 45.62793932 44.49462146 42.73711245 22.25683594 42.92260742 C19.22759465 42.94632686 16.19923366 42.94311952 13.16992188 42.93652344 C-3.33912199 42.95824553 -19.1665572 44.09629369 -35.20507812 48.19628906 C-36.24083984 48.44830078 -37.27660156 48.7003125 -38.34375 48.95996094 C-43.76269762 50.30182827 -49.05014442 51.80946401 -54.30053711 53.71020508 C-56.14257812 54.25878906 -56.14257812 54.25878906 -59.14257812 54.25878906 C-59.14257812 53.59878906 -59.14257812 52.93878906 -59.14257812 52.25878906 C-59.80257812 52.25878906 -60.46257813 52.25878906 -61.14257812 52.25878906 C-62.24977324 49.46731532 -62.15491115 48.29708908 -61.21679688 45.38378906 C-60.75917969 44.35253906 -60.3015625 43.32128906 -59.83007812 42.25878906 C-59.38019531 41.22753906 -58.9303125 40.19628906 -58.46679688 39.13378906 C-57.39983876 36.81732543 -56.304736 34.52854341 -55.14257812 32.25878906 C-54.15257812 32.25878906 -53.16257812 32.25878906 -52.14257812 32.25878906 C-52.01882812 31.33066406 -52.01882812 31.33066406 -51.89257812 30.38378906 C-50.90432371 27.58373488 -49.73897827 27.51764974 -47.14257812 26.25878906 C-46.81257813 25.59878906 -46.48257813 24.93878906 -46.14257812 24.25878906 C-44.87540118 21.72443518 -43.76822658 21.21357032 -41.14257812 20.25878906 C-40.15257813 20.25878906 -39.16257812 20.25878906 -38.14257812 20.25878906 C-38.04976562 19.39253906 -38.04976562 19.39253906 -37.95507812 18.50878906 C-36.80873638 15.33430423 -34.8830097 14.13030331 -32.14257812 12.25878906 C-31.48257813 12.25878906 -30.82257812 12.25878906 -30.14257812 12.25878906 C-30.14257812 11.59878906 -30.14257812 10.93878906 -30.14257812 10.25878906 C-23.00090139 6.43752827 -16.00085077 4.35195005 -8.06054688 2.82128906 C-4.59439836 1.80474042 -3.93455169 0.00830962 0 0 Z " fill="#FBFDFE" transform="translate(81.142578125,79.7412109375)"/>
<path d="M0 0 C0.495 1.98 0.495 1.98 1 4 C4.96 4 8.92 4 13 4 C13 4.66 13 5.32 13 6 C13.86625 6.12375 14.7325 6.2475 15.625 6.375 C18.89513853 6.98058121 21.87256899 7.88306035 25 9 C25 9.99 25 10.98 25 12 C26.65 12 28.3 12 30 12 C30 12.66 30 13.32 30 14 C30.66 14 31.32 14 32 14 C32 13.34 32 12.68 32 12 C32.99 12.495 32.99 12.495 34 13 C34 13.99 34 14.98 34 16 C35.1446875 16.0928125 35.1446875 16.0928125 36.3125 16.1875 C39.89251955 17.26983149 40.21386435 18.79984029 42 22 C43.3303125 23.051875 43.3303125 23.051875 44.6875 24.125 C45.450625 24.74375 46.21375 25.3625 47 26 C47 26.99 47 27.98 47 29 C49.31 28.67 51.62 28.34 54 28 C54 30.64 54 33.28 54 36 C55.65 36 57.3 36 59 36 C59 38.64 59 41.28 59 44 C60.98 44 62.96 44 65 44 C65.33 43.01 65.66 42.02 66 41 C65.37968409 47.57534861 63.85102717 53.66692592 62 60 C60.34021744 57.51032617 59.14128935 55.27674748 57.9375 52.5625 C57.59589844 51.80066406 57.25429687 51.03882813 56.90234375 50.25390625 C56.07129913 48.1780935 55.48168632 46.18000302 55 44 C53.68 44 52.36 44 51 44 C49 41 49 41 49 38 C48.34 38 47.68 38 47 38 C47 37.34 47 36.68 47 36 C46.0409375 35.814375 46.0409375 35.814375 45.0625 35.625 C44.0415625 35.315625 44.0415625 35.315625 43 35 C42.67 34.34 42.34 33.68 42 33 C41.175 32.525625 40.35 32.05125 39.5 31.5625 C37 30 37 30 36 27 C33.67836145 25.55445147 31.4170587 24.25408367 29 23 C28.01 22.4121875 28.01 22.4121875 27 21.8125 C24.85225288 20.83601706 24.85225288 20.83601706 21.75 20.625 C17.85881288 19.97646881 15.40352628 18.75910565 11.9921875 16.9140625 C9.0972935 15.58581702 6.13936456 15.37672375 3 15 C2.01 14.01 2.01 14.01 1 13 C-0.92371866 12.69520129 -0.92371866 12.69520129 -3.14257812 12.74121094 C-3.99686401 12.73490662 -4.8511499 12.72860229 -5.73132324 12.72210693 C-6.65529907 12.7261554 -7.5792749 12.73020386 -8.53125 12.734375 C-9.47810669 12.73246155 -10.42496338 12.7305481 -11.4005127 12.72857666 C-13.40454372 12.72721427 -15.40858354 12.73091444 -17.41259766 12.73925781 C-20.48750553 12.74995653 -23.56182914 12.73936428 -26.63671875 12.7265625 C-28.58073046 12.72788409 -30.52474181 12.73044646 -32.46875 12.734375 C-33.39272583 12.73032654 -34.31670166 12.72627808 -35.26867676 12.72210693 C-36.12296265 12.72841125 -36.97724854 12.73471558 -37.85742188 12.74121094 C-38.61083862 12.74280212 -39.36425537 12.74439331 -40.14050293 12.74603271 C-42.24589007 12.84261318 -42.24589007 12.84261318 -44 15 C-47.13054533 15.70015709 -50.24924272 16.25526534 -53.4140625 16.76757812 C-57.40226728 17.47807524 -59.92501649 18.37847028 -63 21 C-65.75 21.6875 -65.75 21.6875 -68 22 C-68 22.66 -68 23.32 -68 24 C-69.71659432 25.35803676 -71.53184882 26.49830258 -73.37109375 27.68359375 C-75.29953716 29.00013286 -75.29953716 29.00013286 -76 32 C-77.71050188 32.72367387 -79.42328161 33.44296055 -81.15234375 34.12109375 C-85.40953728 36.14618581 -88.24740689 39.69818054 -90 44 C-90.99 44 -91.98 44 -93 44 C-93.11214844 44.53109375 -93.22429687 45.0621875 -93.33984375 45.609375 C-94.16858677 48.61050358 -95.34759982 51.38408163 -96.5625 54.25 C-97.01753906 55.32765625 -97.47257812 56.4053125 -97.94140625 57.515625 C-98.29074219 58.33546875 -98.64007813 59.1553125 -99 60 C-101.046875 56.28125 -101.046875 56.28125 -100.625 53.75 C-100.41875 53.1725 -100.2125 52.595 -100 52 C-99.34 52 -98.68 52 -98 52 C-97.87625 51.319375 -97.7525 50.63875 -97.625 49.9375 C-96.90257585 46.5421065 -96.13661295 43.28354851 -95 40 C-93.515 39.505 -93.515 39.505 -92 39 C-91.67 38.01 -91.34 37.02 -91 36 C-90.34 36 -89.68 36 -89 36 C-88.7525 35.154375 -88.505 34.30875 -88.25 33.4375 C-86.86026373 29.61572526 -85.08879162 26.48131937 -83 23 C-82.34 23 -81.68 23 -81 23 C-80.67 22.01 -80.34 21.02 -80 20 C-77.70703125 17.95703125 -77.70703125 17.95703125 -74.8125 15.8125 C-73.87019531 15.09707031 -72.92789063 14.38164063 -71.95703125 13.64453125 C-68.65348104 11.80728602 -66.7181617 11.66398835 -63 12 C-63 11.01 -63 10.02 -63 9 C-54.7698902 4.91412989 -48.18746945 3.26695722 -39 4 C-39 2.68 -39 1.36 -39 0 C-25.92233728 -1.23374177 -13.0966756 -0.75915273 0 0 Z " fill="#58C4EA" transform="translate(119,68)"/>
<path d="M0 0 C0.85428589 -0.00630432 1.70857178 -0.01260864 2.58874512 -0.019104 C3.51272095 -0.01505554 4.43669678 -0.01100708 5.38867188 -0.00683594 C6.80895691 -0.00970612 6.80895691 -0.00970612 8.25793457 -0.01263428 C10.26196559 -0.01399667 12.26600542 -0.0102965 14.27001953 -0.00195312 C17.34492741 0.00874559 20.41925101 -0.00184666 23.49414062 -0.01464844 C25.43815234 -0.01332685 27.38216368 -0.01076448 29.32617188 -0.00683594 C30.25014771 -0.0108844 31.17412354 -0.01493286 32.12609863 -0.019104 C32.98038452 -0.01279968 33.83467041 -0.00649536 34.71484375 0 C35.4682605 0.00159119 36.22167725 0.00318237 36.9979248 0.00482178 C38.85742188 0.25878906 38.85742188 0.25878906 40.85742188 2.25878906 C43.11841782 2.82948106 43.11841782 2.82948106 45.66992188 3.19628906 C49.7521636 3.93586781 52.30364108 5.12652059 55.85742188 7.25878906 C57.51637664 7.60993449 59.18465058 7.91831383 60.85742188 8.19628906 C65.2206616 8.96665335 67.58222081 10.17624689 70.85742188 13.25878906 C71.57929688 13.58878906 72.30117187 13.91878906 73.04492188 14.25878906 C75.36784537 15.54040202 75.6918348 16.92761492 76.85742188 19.25878906 C78.87412015 20.3922944 78.87412015 20.3922944 80.85742188 21.25878906 C81.18742188 21.91878906 81.51742187 22.57878906 81.85742188 23.25878906 C82.84742188 23.58878906 83.83742187 23.91878906 84.85742188 24.25878906 C84.85742188 24.91878906 84.85742188 25.57878906 84.85742188 26.25878906 C85.51742187 26.25878906 86.17742187 26.25878906 86.85742188 26.25878906 C87.84742188 29.22878906 87.84742188 29.22878906 88.85742188 32.25878906 C90.17742187 32.25878906 91.49742187 32.25878906 92.85742188 32.25878906 C96.02653261 38.1615602 98.69425176 43.62871943 99.85742188 50.25878906 C99.52742187 51.24878906 99.19742188 52.23878906 98.85742188 53.25878906 C94.44680051 54.28451496 91.93111611 54.29563618 87.85742188 52.25878906 C87.85742188 51.92878906 87.85742188 51.59878906 87.85742188 51.25878906 C90.49742187 51.25878906 93.13742188 51.25878906 95.85742188 51.25878906 C93.31413205 42.58848285 90.6536674 37.28303618 82.85742188 32.25878906 C82.52742187 31.26878906 82.19742188 30.27878906 81.85742188 29.25878906 C80.86742187 28.92878906 79.87742188 28.59878906 78.85742188 28.25878906 C78.85742188 27.59878906 78.85742188 26.93878906 78.85742188 26.25878906 C77.86742187 26.25878906 76.87742188 26.25878906 75.85742188 26.25878906 C75.85742188 25.59878906 75.85742188 24.93878906 75.85742188 24.25878906 C74.86742187 23.92878906 73.87742188 23.59878906 72.85742188 23.25878906 C72.85742188 22.59878906 72.85742188 21.93878906 72.85742188 21.25878906 C72.07367188 21.30003906 71.28992188 21.34128906 70.48242188 21.38378906 C67.85742188 21.25878906 67.85742188 21.25878906 65.85742188 19.25878906 C65.85742188 18.26878906 65.85742188 17.27878906 65.85742188 16.25878906 C63.54742187 16.25878906 61.23742187 16.25878906 58.85742188 16.25878906 C58.85742188 15.59878906 58.85742188 14.93878906 58.85742188 14.25878906 C58.08398438 14.13761719 57.31054688 14.01644531 56.51367188 13.89160156 C50.53860128 12.93026595 44.70149608 11.83219366 38.85742188 10.25878906 C38.85742188 9.59878906 38.85742188 8.93878906 38.85742188 8.25878906 C33.46757679 8.32808105 28.07847702 8.41624515 22.68920898 8.52124023 C20.85921559 8.55431338 19.02912451 8.58239905 17.19897461 8.60522461 C14.55475574 8.63909713 11.91141809 8.69142548 9.26757812 8.74707031 C8.05763939 8.7566552 8.05763939 8.7566552 6.82325745 8.76643372 C1.80577455 8.89374187 -2.37248335 9.75829351 -7.07740784 11.51676941 C-9.20632583 12.28169374 -11.3139049 12.81559944 -13.51757812 13.32128906 C-17.20512568 14.06309286 -17.20512568 14.06309286 -20.14257812 16.25878906 C-22.40429688 16.45410156 -22.40429688 16.45410156 -24.83007812 16.38378906 C-25.63832031 16.36574219 -26.4465625 16.34769531 -27.27929688 16.32910156 C-27.89417969 16.30589844 -28.5090625 16.28269531 -29.14257812 16.25878906 C-29.14257812 17.24878906 -29.14257812 18.23878906 -29.14257812 19.25878906 C-30.46257813 19.25878906 -31.78257813 19.25878906 -33.14257812 19.25878906 C-33.23539063 20.12503906 -33.23539063 20.12503906 -33.33007812 21.00878906 C-34.47641987 24.18327389 -36.40214655 25.38727482 -39.14257812 27.25878906 C-39.80257812 27.25878906 -40.46257813 27.25878906 -41.14257812 27.25878906 C-41.14257812 27.91878906 -41.14257812 28.57878906 -41.14257812 29.25878906 C-42.13257812 29.58878906 -43.12257813 29.91878906 -44.14257812 30.25878906 C-45.99464416 32.04887233 -45.99464416 32.04887233 -47.76757812 34.19628906 C-48.68410156 35.26169922 -48.68410156 35.26169922 -49.61914062 36.34863281 C-51.19284154 38.18592924 -51.19284154 38.18592924 -52.14257812 40.25878906 C-53.13257813 40.25878906 -54.12257813 40.25878906 -55.14257812 40.25878906 C-55.27535156 40.83113281 -55.408125 41.40347656 -55.54492188 41.99316406 C-56.13638129 44.23529781 -56.87546666 46.34458525 -57.70507812 48.50878906 C-57.97449219 49.21519531 -58.24390625 49.92160156 -58.52148438 50.64941406 C-58.72644531 51.18050781 -58.93140625 51.71160156 -59.14257812 52.25878906 C-59.80257812 52.25878906 -60.46257813 52.25878906 -61.14257812 52.25878906 C-62.24977324 49.46731532 -62.15491115 48.29708908 -61.21679688 45.38378906 C-60.75917969 44.35253906 -60.3015625 43.32128906 -59.83007812 42.25878906 C-59.38019531 41.22753906 -58.9303125 40.19628906 -58.46679688 39.13378906 C-57.39983876 36.81732543 -56.304736 34.52854341 -55.14257812 32.25878906 C-54.15257812 32.25878906 -53.16257812 32.25878906 -52.14257812 32.25878906 C-52.01882812 31.33066406 -52.01882812 31.33066406 -51.89257812 30.38378906 C-50.90432371 27.58373488 -49.73897827 27.51764974 -47.14257812 26.25878906 C-46.81257813 25.59878906 -46.48257813 24.93878906 -46.14257812 24.25878906 C-44.87540118 21.72443518 -43.76822658 21.21357032 -41.14257812 20.25878906 C-40.15257813 20.25878906 -39.16257812 20.25878906 -38.14257812 20.25878906 C-38.04976562 19.39253906 -38.04976562 19.39253906 -37.95507812 18.50878906 C-36.80873638 15.33430423 -34.8830097 14.13030331 -32.14257812 12.25878906 C-31.48257813 12.25878906 -30.82257812 12.25878906 -30.14257812 12.25878906 C-30.14257812 11.59878906 -30.14257812 10.93878906 -30.14257812 10.25878906 C-23.00090139 6.43752827 -16.00085077 4.35195005 -8.06054688 2.82128906 C-4.59439836 1.80474042 -3.93455169 0.00830962 0 0 Z " fill="#CAECF9" transform="translate(81.142578125,79.7412109375)"/>
<path d="M0 0 C1.07185547 -0.01224609 2.14371094 -0.02449219 3.24804688 -0.03710938 C9.62354351 -0.04880753 15.28268187 0.5777072 21.4375 2.1875 C23.45573001 2.57626726 25.47620061 2.95385201 27.5 3.3125 C28.43972656 3.48007813 29.37945312 3.64765625 30.34765625 3.8203125 C31.38212891 4.00207031 31.38212891 4.00207031 32.4375 4.1875 C32.4375 4.8475 32.4375 5.5075 32.4375 6.1875 C34.0875 6.1875 35.7375 6.1875 37.4375 6.1875 C37.4375 6.8475 37.4375 7.5075 37.4375 8.1875 C38.324375 8.31125 39.21125 8.435 40.125 8.5625 C43.14137502 9.13162736 45.64076054 9.95364436 48.4375 11.1875 C48.4375 12.5075 48.4375 13.8275 48.4375 15.1875 C49.015 15.47625 49.5925 15.765 50.1875 16.0625 C52.27083333 17.10416667 54.35416667 18.14583333 56.4375 19.1875 C56.4375 20.1775 56.4375 21.1675 56.4375 22.1875 C57.9225 22.6825 57.9225 22.6825 59.4375 23.1875 C61.125 24.625 61.125 24.625 62.4375 26.1875 C62.4375 26.8475 62.4375 27.5075 62.4375 28.1875 C63.0975 28.1875 63.7575 28.1875 64.4375 28.1875 C64.685 28.80625 64.9325 29.425 65.1875 30.0625 C66.26146211 32.33751528 66.26146211 32.33751528 68.5 33.1875 C70.4375 34.1875 70.4375 34.1875 71.1875 36.3125 C71.27 36.93125 71.3525 37.55 71.4375 38.1875 C72.0975 38.1875 72.7575 38.1875 73.4375 38.1875 C75.46100324 41.22275486 75.75874018 42.38176202 76.0625 45.875 C76.17464844 47.08736328 76.17464844 47.08736328 76.2890625 48.32421875 C76.33804688 48.93910156 76.38703125 49.55398437 76.4375 50.1875 C77.0975 50.1875 77.7575 50.1875 78.4375 50.1875 C77.7775 51.5075 77.1175 52.8275 76.4375 54.1875 C75.62145001 52.2723421 74.80979368 50.35531166 74 48.4375 C73.54753906 47.37015625 73.09507812 46.3028125 72.62890625 45.203125 C71.69770447 42.8461159 70.9590928 40.65757165 70.4375 38.1875 C69.1175 38.1875 67.7975 38.1875 66.4375 38.1875 C64.4375 35.1875 64.4375 35.1875 64.4375 32.1875 C63.7775 32.1875 63.1175 32.1875 62.4375 32.1875 C62.4375 31.5275 62.4375 30.8675 62.4375 30.1875 C61.798125 30.06375 61.15875 29.94 60.5 29.8125 C59.819375 29.60625 59.13875 29.4 58.4375 29.1875 C57.9425 28.1975 57.9425 28.1975 57.4375 27.1875 C56.6125 26.713125 55.7875 26.23875 54.9375 25.75 C52.4375 24.1875 52.4375 24.1875 51.4375 21.1875 C49.11586145 19.74195147 46.8545587 18.44158367 44.4375 17.1875 C43.4475 16.5996875 43.4475 16.5996875 42.4375 16 C40.28975288 15.02351706 40.28975288 15.02351706 37.1875 14.8125 C33.29631288 14.16396881 30.84102628 12.94660565 27.4296875 11.1015625 C24.5347935 9.77331702 21.57686456 9.56422375 18.4375 9.1875 C17.4475 8.1975 17.4475 8.1975 16.4375 7.1875 C14.51378134 6.88270129 14.51378134 6.88270129 12.29492188 6.92871094 C11.44063599 6.92240662 10.5863501 6.91610229 9.70617676 6.90960693 C8.78220093 6.9136554 7.8582251 6.91770386 6.90625 6.921875 C5.95939331 6.91996155 5.01253662 6.9180481 4.0369873 6.91607666 C2.03295628 6.91471427 0.02891646 6.91841444 -1.97509766 6.92675781 C-5.05000553 6.93745653 -8.12432914 6.92686428 -11.19921875 6.9140625 C-13.14323046 6.91538409 -15.08724181 6.91794646 -17.03125 6.921875 C-17.95522583 6.91782654 -18.87920166 6.91377808 -19.83117676 6.90960693 C-20.68546265 6.91591125 -21.53974854 6.92221558 -22.41992188 6.92871094 C-23.17333862 6.93030212 -23.92675537 6.93189331 -24.70300293 6.93353271 C-26.80839007 7.03011318 -26.80839007 7.03011318 -28.5625 9.1875 C-31.69304533 9.88765709 -34.81174272 10.44276534 -37.9765625 10.95507812 C-41.96476728 11.66557524 -44.48751649 12.56597028 -47.5625 15.1875 C-50.3125 15.875 -50.3125 15.875 -52.5625 16.1875 C-52.5625 16.8475 -52.5625 17.5075 -52.5625 18.1875 C-54.27909432 19.54553676 -56.09434882 20.68580258 -57.93359375 21.87109375 C-59.86203716 23.18763286 -59.86203716 23.18763286 -60.5625 26.1875 C-62.625 26.875 -62.625 26.875 -64.5625 27.1875 C-62.88848022 23.23072598 -60.43100715 20.34285787 -57.5625 17.1875 C-56.9025 17.1875 -56.2425 17.1875 -55.5625 17.1875 C-55.5625 16.5275 -55.5625 15.8675 -55.5625 15.1875 C-54.923125 14.89875 -54.28375 14.61 -53.625 14.3125 C-51.41043921 13.35926549 -51.41043921 13.35926549 -50.5625 11.1875 C-48.00362476 9.6459337 -45.26811856 8.44979582 -42.5625 7.1875 C-41.510625 6.671875 -40.45875 6.15625 -39.375 5.625 C-26.94965792 0.43358995 -13.25533192 0.0079996 0 0 Z " fill="#87D5F0" transform="translate(103.5625,73.8125)"/>
<path d="M0 0 C0.85428589 -0.00630432 1.70857178 -0.01260864 2.58874512 -0.019104 C3.51272095 -0.01505554 4.43669678 -0.01100708 5.38867188 -0.00683594 C6.80895691 -0.00970612 6.80895691 -0.00970612 8.25793457 -0.01263428 C10.26196559 -0.01399667 12.26600542 -0.0102965 14.27001953 -0.00195312 C17.34492741 0.00874559 20.41925101 -0.00184666 23.49414062 -0.01464844 C25.43815234 -0.01332685 27.38216368 -0.01076448 29.32617188 -0.00683594 C30.25014771 -0.0108844 31.17412354 -0.01493286 32.12609863 -0.019104 C32.98038452 -0.01279968 33.83467041 -0.00649536 34.71484375 0 C35.4682605 0.00159119 36.22167725 0.00318237 36.9979248 0.00482178 C38.85742188 0.25878906 38.85742188 0.25878906 40.85742188 2.25878906 C43.11841782 2.82948106 43.11841782 2.82948106 45.66992188 3.19628906 C49.7521636 3.93586781 52.30364108 5.12652059 55.85742188 7.25878906 C57.51637664 7.60993449 59.18465058 7.91831383 60.85742188 8.19628906 C65.2206616 8.96665335 67.58222081 10.17624689 70.85742188 13.25878906 C71.57929688 13.58878906 72.30117187 13.91878906 73.04492188 14.25878906 C75.36784537 15.54040202 75.6918348 16.92761492 76.85742188 19.25878906 C78.1826269 19.94147044 79.51554369 20.60949317 80.85742188 21.25878906 C81.18742188 22.24878906 81.51742187 23.23878906 81.85742188 24.25878906 C80.86742187 23.92878906 79.87742188 23.59878906 78.85742188 23.25878906 C78.85742188 22.59878906 78.85742188 21.93878906 78.85742188 21.25878906 C78.27992188 21.17628906 77.70242187 21.09378906 77.10742188 21.00878906 C74.85742188 20.25878906 74.85742188 20.25878906 73.03710938 18.30175781 C70.54834788 15.96910143 69.0318859 15.51869764 65.73242188 14.82128906 C59.96256015 13.42347599 55.04430162 11.10538467 49.85742188 8.25878906 C49.85742188 7.59878906 49.85742188 6.93878906 49.85742188 6.25878906 C49.0865625 6.12601562 48.31570312 5.99324219 47.52148438 5.85644531 C46.51859375 5.67984375 45.51570313 5.50324219 44.48242188 5.32128906 C43.4846875 5.14726563 42.48695312 4.97324219 41.45898438 4.79394531 C38.85742188 4.25878906 38.85742188 4.25878906 36.85742188 3.25878906 C32.03311285 2.89285718 27.19413487 2.86334625 22.35742188 2.82128906 C21.64533569 2.81478333 20.93324951 2.80827759 20.19958496 2.80157471 C5.94821714 2.74199073 -10.39336814 3.71599579 -23.26464844 10.35302734 C-25.14257812 11.25878906 -25.14257812 11.25878906 -28.14257812 11.25878906 C-28.34882812 12.02191406 -28.55507813 12.78503906 -28.76757812 13.57128906 C-30.56605996 17.08650356 -32.64183926 17.62014534 -36.14257812 19.25878906 C-36.47257812 20.24878906 -36.80257812 21.23878906 -37.14257812 22.25878906 C-40.03816253 23.70658127 -41.8844675 24.25878906 -45.14257812 24.25878906 C-45.24570312 24.89816406 -45.34882812 25.53753906 -45.45507812 26.19628906 C-45.68195312 26.87691406 -45.90882812 27.55753906 -46.14257812 28.25878906 C-47.13257813 28.58878906 -48.12257813 28.91878906 -49.14257812 29.25878906 C-49.24570312 30.02191406 -49.34882812 30.78503906 -49.45507812 31.57128906 C-50.14257812 34.25878906 -50.14257812 34.25878906 -51.48632812 35.44628906 C-53.99068486 38.18690587 -55.03576894 41.52356032 -56.33007812 44.94628906 C-56.60271484 45.64818359 -56.87535156 46.35007813 -57.15625 47.07324219 C-57.82543358 48.79903141 -58.48496288 50.52855865 -59.14257812 52.25878906 C-59.80257812 52.25878906 -60.46257813 52.25878906 -61.14257812 52.25878906 C-62.24977324 49.46731532 -62.15491115 48.29708908 -61.21679688 45.38378906 C-60.75917969 44.35253906 -60.3015625 43.32128906 -59.83007812 42.25878906 C-59.38019531 41.22753906 -58.9303125 40.19628906 -58.46679688 39.13378906 C-57.39983876 36.81732543 -56.304736 34.52854341 -55.14257812 32.25878906 C-54.15257812 32.25878906 -53.16257812 32.25878906 -52.14257812 32.25878906 C-52.01882812 31.33066406 -52.01882812 31.33066406 -51.89257812 30.38378906 C-50.90432371 27.58373488 -49.73897827 27.51764974 -47.14257812 26.25878906 C-46.81257813 25.59878906 -46.48257813 24.93878906 -46.14257812 24.25878906 C-44.87540118 21.72443518 -43.76822658 21.21357032 -41.14257812 20.25878906 C-40.15257813 20.25878906 -39.16257812 20.25878906 -38.14257812 20.25878906 C-38.04976562 19.39253906 -38.04976562 19.39253906 -37.95507812 18.50878906 C-36.80873638 15.33430423 -34.8830097 14.13030331 -32.14257812 12.25878906 C-31.48257813 12.25878906 -30.82257812 12.25878906 -30.14257812 12.25878906 C-30.14257812 11.59878906 -30.14257812 10.93878906 -30.14257812 10.25878906 C-23.00090139 6.43752827 -16.00085077 4.35195005 -8.06054688 2.82128906 C-4.59439836 1.80474042 -3.93455169 0.00830962 0 0 Z " fill="#AFE2F5" transform="translate(81.142578125,79.7412109375)"/>
<path d="M0 0 C0.68811768 -0.00163147 1.37623535 -0.00326294 2.08520508 -0.00494385 C14.62476441 -0.00158304 14.62476441 -0.00158304 20.875 2.375 C20.875 3.035 20.875 3.695 20.875 4.375 C22.195 4.705 23.515 5.035 24.875 5.375 C24.875 5.705 24.875 6.035 24.875 6.375 C23.225 6.375 21.575 6.375 19.875 6.375 C19.875 5.715 19.875 5.055 19.875 4.375 C14.48515492 4.44429199 9.09605515 4.53245609 3.70678711 4.63745117 C1.87679372 4.67052431 0.04670263 4.69860999 -1.78344727 4.72143555 C-4.42766613 4.75530807 -7.07100379 4.80763641 -9.71484375 4.86328125 C-10.92478249 4.87286613 -10.92478249 4.87286613 -12.15916443 4.88264465 C-17.17664733 5.00995281 -21.35490522 5.87450445 -26.05982971 7.63298035 C-28.1887477 8.39790467 -30.29632677 8.93181038 -32.5 9.4375 C-36.18754756 10.17930379 -36.18754756 10.17930379 -39.125 12.375 C-41.38671875 12.5703125 -41.38671875 12.5703125 -43.8125 12.5 C-44.62074219 12.48195313 -45.42898437 12.46390625 -46.26171875 12.4453125 C-47.18404297 12.41050781 -47.18404297 12.41050781 -48.125 12.375 C-48.125 13.365 -48.125 14.355 -48.125 15.375 C-49.445 15.375 -50.765 15.375 -52.125 15.375 C-52.2178125 16.24125 -52.2178125 16.24125 -52.3125 17.125 C-53.45884174 20.29948483 -55.38456842 21.50348575 -58.125 23.375 C-58.785 23.375 -59.445 23.375 -60.125 23.375 C-60.125 24.035 -60.125 24.695 -60.125 25.375 C-61.115 25.705 -62.105 26.035 -63.125 26.375 C-64.97706604 28.16508327 -64.97706604 28.16508327 -66.75 30.3125 C-67.66652344 31.37791016 -67.66652344 31.37791016 -68.6015625 32.46484375 C-70.17526342 34.30214018 -70.17526342 34.30214018 -71.125 36.375 C-71.785 36.375 -72.445 36.375 -73.125 36.375 C-72.54480487 33.00986826 -71.49048527 31.74048527 -69.125 29.375 C-68.96 28.694375 -68.795 28.01375 -68.625 27.3125 C-68.125 25.375 -68.125 25.375 -65.125 23.375 C-64.795 22.385 -64.465 21.395 -64.125 20.375 C-61.14040871 18.41957812 -59.86085209 18.375 -56.125 18.375 C-56.03992188 17.76140625 -55.95484375 17.1478125 -55.8671875 16.515625 C-55.125 14.375 -55.125 14.375 -53.3828125 13.109375 C-52.67898437 12.78453125 -51.97515625 12.4596875 -51.25 12.125 C-50.55132812 11.78984375 -49.85265625 11.4546875 -49.1328125 11.109375 C-47.125 10.375 -47.125 10.375 -44.125 10.375 C-44.125 9.715 -44.125 9.055 -44.125 8.375 C-40.19457073 6.70754516 -36.22754874 5.54592682 -32.125 4.375 C-31.1040625 4.02179688 -30.083125 3.66859375 -29.03125 3.3046875 C-19.39858252 0.3220955 -10.00670827 -0.01130145 0 0 Z " fill="#D4F0FA" transform="translate(100.125,83.625)"/>
<path d="M0 0 C1.07185547 -0.01224609 2.14371094 -0.02449219 3.24804688 -0.03710938 C9.62354351 -0.04880753 15.28268187 0.5777072 21.4375 2.1875 C23.45573001 2.57626726 25.47620061 2.95385201 27.5 3.3125 C28.43972656 3.48007813 29.37945312 3.64765625 30.34765625 3.8203125 C31.03730469 3.94148438 31.72695312 4.06265625 32.4375 4.1875 C32.4375 4.8475 32.4375 5.5075 32.4375 6.1875 C34.0875 6.1875 35.7375 6.1875 37.4375 6.1875 C37.4375 6.8475 37.4375 7.5075 37.4375 8.1875 C38.324375 8.31125 39.21125 8.435 40.125 8.5625 C43.14137502 9.13162736 45.64076054 9.95364436 48.4375 11.1875 C48.4375 12.5075 48.4375 13.8275 48.4375 15.1875 C49.015 15.47625 49.5925 15.765 50.1875 16.0625 C52.27083333 17.10416667 54.35416667 18.14583333 56.4375 19.1875 C56.4375 20.1775 56.4375 21.1675 56.4375 22.1875 C57.9225 22.6825 57.9225 22.6825 59.4375 23.1875 C61.125 24.625 61.125 24.625 62.4375 26.1875 C62.4375 26.8475 62.4375 27.5075 62.4375 28.1875 C63.0975 28.1875 63.7575 28.1875 64.4375 28.1875 C64.685 28.80625 64.9325 29.425 65.1875 30.0625 C66.26146211 32.33751528 66.26146211 32.33751528 68.5 33.1875 C70.4375 34.1875 70.4375 34.1875 71.1875 36.3125 C71.27 36.93125 71.3525 37.55 71.4375 38.1875 C72.0975 38.1875 72.7575 38.1875 73.4375 38.1875 C75.46100324 41.22275486 75.75874018 42.38176202 76.0625 45.875 C76.17464844 47.08736328 76.17464844 47.08736328 76.2890625 48.32421875 C76.33804688 48.93910156 76.38703125 49.55398437 76.4375 50.1875 C77.0975 50.1875 77.7575 50.1875 78.4375 50.1875 C77.7775 51.5075 77.1175 52.8275 76.4375 54.1875 C75.62145001 52.2723421 74.80979368 50.35531166 74 48.4375 C73.54753906 47.37015625 73.09507812 46.3028125 72.62890625 45.203125 C71.69770447 42.8461159 70.9590928 40.65757165 70.4375 38.1875 C69.1175 38.1875 67.7975 38.1875 66.4375 38.1875 C64.4375 35.1875 64.4375 35.1875 64.4375 32.1875 C63.7775 32.1875 63.1175 32.1875 62.4375 32.1875 C62.4375 31.5275 62.4375 30.8675 62.4375 30.1875 C61.798125 30.06375 61.15875 29.94 60.5 29.8125 C59.819375 29.60625 59.13875 29.4 58.4375 29.1875 C57.9425 28.1975 57.9425 28.1975 57.4375 27.1875 C56.6125 26.713125 55.7875 26.23875 54.9375 25.75 C52.4375 24.1875 52.4375 24.1875 51.4375 21.1875 C47.74893696 18.77864251 44.20442379 17.0401593 40.0625 15.5625 C36.4375 14.1875 36.4375 14.1875 35.4375 12.1875 C34.4475 11.8575 33.4575 11.5275 32.4375 11.1875 C31.921875 10.5275 31.40625 9.8675 30.875 9.1875 C27.15347783 6.13394335 23.12429556 6.36638533 18.4375 6.1875 C18.4375 5.5275 18.4375 4.8675 18.4375 4.1875 C15.00145235 2.46947618 11.05311104 3.0678382 7.2734375 3.08984375 C6.36622955 3.0912587 5.45902161 3.09267365 4.52432251 3.09413147 C1.62034845 3.09973904 -1.28354915 3.11229282 -4.1875 3.125 C-6.15364472 3.13001402 -8.11979065 3.1345771 -10.0859375 3.13867188 C-14.9114879 3.14971094 -19.73698097 3.16698065 -24.5625 3.1875 C-19.38499888 -1.99000112 -6.90411408 0.00416663 0 0 Z " fill="#77CFEE" transform="translate(103.5625,73.8125)"/>
<path d="M0 0 C1.65 0 3.3 0 5 0 C5 0.66 5 1.32 5 2 C5.66 2 6.32 2 7 2 C7 1.34 7 0.68 7 0 C7.66 0.33 8.32 0.66 9 1 C9 1.99 9 2.98 9 4 C10.1446875 4.0928125 10.1446875 4.0928125 11.3125 4.1875 C14.89251955 5.26983149 15.21386435 6.79984029 17 10 C17.886875 10.70125 18.77375 11.4025 19.6875 12.125 C20.450625 12.74375 21.21375 13.3625 22 14 C22 14.99 22 15.98 22 17 C25.465 16.505 25.465 16.505 29 16 C29 18.64 29 21.28 29 24 C30.65 24 32.3 24 34 24 C34 26.64 34 29.28 34 32 C35.98 32 37.96 32 40 32 C40.495 30.515 40.495 30.515 41 29 C40.44854729 34.23880078 39.57077907 38.97350697 38 44 C37.34 44 36.68 44 36 44 C35.80083984 43.07767578 35.80083984 43.07767578 35.59765625 42.13671875 C35.42105469 41.32847656 35.24445313 40.52023438 35.0625 39.6875 C34.88847656 38.88699219 34.71445313 38.08648437 34.53515625 37.26171875 C34.00113841 34.854599 34.00113841 34.854599 33 32 C32.34 32 31.68 32 31 32 C30.938125 31.38125 30.87625 30.7625 30.8125 30.125 C30.544375 29.42375 30.27625 28.7225 30 28 C29.175 27.67 28.35 27.34 27.5 27 C26.675 26.67 25.85 26.34 25 26 C24.1875 23.875 24.1875 23.875 24 22 C23.34 22 22.68 22 22 22 C22 21.34 22 20.68 22 20 C21.01 19.67 20.02 19.34 19 19 C17.3125 17.625 17.3125 17.625 16 16 C16 15.01 16 14.02 16 13 C15.13375 12.8453125 15.13375 12.8453125 14.25 12.6875 C11.58978053 11.87465516 10.00309159 10.93155261 8 9 C8 7.68 8 6.36 8 5 C7.236875 4.855625 6.47375 4.71125 5.6875 4.5625 C3 4 3 4 0 3 C0 2.01 0 1.02 0 0 Z " fill="#56C4EA" transform="translate(144,80)"/>
<path d="M0 0 C0.33 0 0.66 0 1 0 C1.33 3.63 1.66 7.26 2 11 C2.49371094 10.3503125 2.98742187 9.700625 3.49609375 9.03125 C4.13675781 8.1959375 4.77742188 7.360625 5.4375 6.5 C6.07558594 5.6646875 6.71367187 4.829375 7.37109375 3.96875 C7.90863281 3.3190625 8.44617188 2.669375 9 2 C9.33 2 9.66 2 10 2 C10 5.63 10 9.26 10 13 C10.99 13 11.98 13 13 13 C13.144375 11.865625 13.28875 10.73125 13.4375 9.5625 C14 6 14 6 15 5 C16.66617115 4.95936168 18.33388095 4.957279 20 5 C18.68 7.64 17.36 10.28 16 13 C15.34 13 14.68 13 14 13 C13.67 14.32 13.34 15.64 13 17 C12.01 17 11.02 17 10 17 C9.87625 18.051875 9.7525 19.10375 9.625 20.1875 C9.08859218 23.45958771 8.36119965 26.00536076 7 29 C6.34 29 5.68 29 5 29 C4.67 30.32 4.34 31.64 4 33 C0.61556624 21.77395408 -0.52168987 11.70903934 0 0 Z " fill="#279CD7" transform="translate(14,91)"/>
<path d="M0 0 C0.66 0.33 1.32 0.66 2 1 C-3.625 5 -3.625 5 -7 5 C-7.33 5.99 -7.66 6.98 -8 8 C-10.0625 8.6875 -10.0625 8.6875 -12 9 C-12 9.66 -12 10.32 -12 11 C-13.875 13.125 -13.875 13.125 -16 15 C-16.66 15 -17.32 15 -18 15 C-18.40605469 15.87978516 -18.40605469 15.87978516 -18.8203125 16.77734375 C-21.50070039 21.82747854 -25.45078742 25.63021291 -30 29 C-30.33 29.99 -30.66 30.98 -31 32 C-31.99 32 -32.98 32 -34 32 C-34.11214844 32.53109375 -34.22429688 33.0621875 -34.33984375 33.609375 C-35.16858677 36.61050358 -36.34759982 39.38408163 -37.5625 42.25 C-38.01753906 43.32765625 -38.47257812 44.4053125 -38.94140625 45.515625 C-39.29074219 46.33546875 -39.64007813 47.1553125 -40 48 C-42.046875 44.28125 -42.046875 44.28125 -41.625 41.75 C-41.41875 41.1725 -41.2125 40.595 -41 40 C-40.34 40 -39.68 40 -39 40 C-38.87625 39.319375 -38.7525 38.63875 -38.625 37.9375 C-37.90257585 34.5421065 -37.13661295 31.28354851 -36 28 C-35.01 27.67 -34.02 27.34 -33 27 C-32.67 26.01 -32.34 25.02 -32 24 C-31.34 24 -30.68 24 -30 24 C-29.71125 23.05125 -29.4225 22.1025 -29.125 21.125 C-28 18 -28 18 -26 16 C-25.01 16 -24.02 16 -23 16 C-22.67 15.01 -22.34 14.02 -22 13 C-21.34 13 -20.68 13 -20 13 C-20 12.01 -20 11.02 -20 10 C-17.09399739 8.74335022 -15.20395416 8 -12 8 C-12 7.01 -12 6.02 -12 5 C-10.04578965 4.13644222 -8.08648653 3.28440066 -6.125 2.4375 C-5.03445312 1.96183594 -3.94390625 1.48617187 -2.8203125 0.99609375 C-1.88960937 0.66738281 -0.95890625 0.33867188 0 0 Z " fill="#80D3F0" transform="translate(60,80)"/>
<path d="M0 0 C2.64 0.33 5.28 0.66 8 1 C8 1.66 8 2.32 8 3 C8.99 3 9.98 3 11 3 C11 3.66 11 4.32 11 5 C11.66 5 12.32 5 13 5 C13 5.66 13 6.32 13 7 C13.83337891 7.15855469 13.83337891 7.15855469 14.68359375 7.3203125 C17.45098442 8.13232932 19.59766283 9.38048335 22.0625 10.875 C22.91972656 11.38804688 23.77695313 11.90109375 24.66015625 12.4296875 C26.73810786 13.82423933 28.40143418 15.08172101 30 17 C30 17.66 30 18.32 30 19 C30.66 19 31.32 19 32 19 C32.2475 19.61875 32.495 20.2375 32.75 20.875 C33.82396211 23.15001528 33.82396211 23.15001528 36.0625 24 C38 25 38 25 38.75 27.125 C38.8325 27.74375 38.915 28.3625 39 29 C39.66 29 40.32 29 41 29 C43.02350324 32.03525486 43.32124018 33.19426202 43.625 36.6875 C43.69976562 37.49574219 43.77453125 38.30398437 43.8515625 39.13671875 C43.90054688 39.75160156 43.94953125 40.36648437 44 41 C44.66 41 45.32 41 46 41 C45.34 42.32 44.68 43.64 44 45 C43.18395001 43.0848421 42.37229368 41.16781166 41.5625 39.25 C41.11003906 38.18265625 40.65757812 37.1153125 40.19140625 36.015625 C39.26020447 33.6586159 38.5215928 31.47007165 38 29 C36.68 29 35.36 29 34 29 C32 26 32 26 32 23 C31.34 23 30.68 23 30 23 C30 22.34 30 21.68 30 21 C29.360625 20.87625 28.72125 20.7525 28.0625 20.625 C27.0415625 20.315625 27.0415625 20.315625 26 20 C25.67 19.34 25.34 18.68 25 18 C24.175 17.525625 23.35 17.05125 22.5 16.5625 C20 15 20 15 19 12 C15.31143696 9.59114251 11.76692379 7.8526593 7.625 6.375 C4 5 4 5 3 3 C2.01 2.67 1.02 2.34 0 2 C0 1.34 0 0.68 0 0 Z " fill="#89D6F1" transform="translate(136,83)"/>
<path d="M0 0 C1.27166016 -0.00128906 2.54332031 -0.00257812 3.85351562 -0.00390625 C4.84726196 -0.00076416 4.84726196 -0.00076416 5.86108398 0.00244141 C7.86897192 0.00776544 9.87687926 0.0019791 11.88476562 -0.00390625 C13.79805664 -0.00197266 13.79805664 -0.00197266 15.75 0 C17.4966394 0.00169189 17.4966394 0.00169189 19.27856445 0.00341797 C22.46078843 0.12835898 25.4493617 0.53576648 28.57421875 1.1328125 C28.57421875 1.7928125 28.57421875 2.4528125 28.57421875 3.1328125 C29.58742188 3.08060547 29.58742188 3.08060547 30.62109375 3.02734375 C31.95914063 2.98673828 31.95914063 2.98673828 33.32421875 2.9453125 C34.2059375 2.91050781 35.08765625 2.87570313 35.99609375 2.83984375 C39.05032824 3.18691585 40.37986174 4.01536052 42.57421875 6.1328125 C42.57421875 6.7928125 42.57421875 7.4528125 42.57421875 8.1328125 C43.89421875 8.4628125 45.21421875 8.7928125 46.57421875 9.1328125 C46.57421875 9.7928125 46.57421875 10.4528125 46.57421875 11.1328125 C43.89857449 10.59768365 41.7734663 9.77020762 39.26171875 8.6328125 C35.61657495 7.15004214 32.44662627 6.66431941 28.57421875 6.1328125 C27.91421875 5.4728125 27.25421875 4.8128125 26.57421875 4.1328125 C23.70985051 3.88699407 20.93518735 3.75911869 18.06640625 3.71875 C17.22578644 3.69938385 16.38516663 3.6800177 15.51907349 3.6600647 C12.82922572 3.60019592 10.13933532 3.55385479 7.44921875 3.5078125 C5.62758531 3.4696394 3.80597005 3.43058806 1.984375 3.390625 C-2.48552977 3.29448852 -6.95551904 3.21048481 -11.42578125 3.1328125 C-7.96966708 -0.32330167 -4.66307825 0.00453009 0 0 Z " fill="#9ADBF3" transform="translate(93.42578125,76.8671875)"/>
<path d="M0 0 C0.94641357 -0.00459229 1.89282715 -0.00918457 2.86791992 -0.01391602 C7.93674668 -0.00275808 12.75461631 0.25563765 17.75 1.125 C17.75 1.785 17.75 2.445 17.75 3.125 C19.07 3.455 20.39 3.785 21.75 4.125 C21.75 4.455 21.75 4.785 21.75 5.125 C20.1 5.125 18.45 5.125 16.75 5.125 C16.75 4.465 16.75 3.805 16.75 3.125 C11.36015492 3.19429199 5.97105515 3.28245609 0.58178711 3.38745117 C-1.24820628 3.42052431 -3.07829737 3.44860999 -4.90844727 3.47143555 C-7.55266613 3.50530807 -10.19600379 3.55763641 -12.83984375 3.61328125 C-14.04978249 3.62286613 -14.04978249 3.62286613 -15.28416443 3.63264465 C-20.30164733 3.75995281 -24.47990522 4.62450445 -29.18482971 6.38298035 C-31.3137477 7.14790467 -33.42132677 7.68181038 -35.625 8.1875 C-39.31254756 8.92930379 -39.31254756 8.92930379 -42.25 11.125 C-44.4375 10.75 -44.4375 10.75 -46.25 10.125 C-43.47345631 7.83732054 -41.22729752 6.62402464 -37.73828125 5.7734375 C-36.47854492 5.45632812 -36.47854492 5.45632812 -35.19335938 5.1328125 C-34.32517578 4.92398438 -33.45699219 4.71515625 -32.5625 4.5 C-30.82870866 4.07322059 -29.09559346 3.64368164 -27.36328125 3.2109375 C-26.59798096 3.0257959 -25.83268066 2.8406543 -25.04418945 2.64990234 C-23.24409037 2.27912814 -23.24409037 2.27912814 -22.25 1.125 C-14.95735159 -0.20841878 -7.38642823 0.0201598 0 0 Z " fill="#E9F7FC" transform="translate(103.25,84.875)"/>
<path d="M0 0 C0.99 0 1.98 0 3 0 C3 0.66 3 1.32 3 2 C3.66 2 4.32 2 5 2 C5.66 3.98 6.32 5.96 7 8 C8.32 8 9.64 8 11 8 C14.16911073 13.90277114 16.83682989 19.36993037 18 26 C17.67 26.99 17.34 27.98 17 29 C12.58937864 30.0257259 10.07369424 30.03684712 6 28 C6 27.67 6 27.34 6 27 C8.64 27 11.28 27 14 27 C12.05008711 20.3525697 9.98171104 14.98171104 5 10 C5 8.68 5 7.36 5 6 C4.360625 5.7525 3.72125 5.505 3.0625 5.25 C1 4 1 4 0.25 1.875 C0.1675 1.25625 0.085 0.6375 0 0 Z " fill="#C1E8F8" transform="translate(163,104)"/>
<path d="M0 0 C-2 3 -2 3 -5.3359375 3.84375 C-6.68022139 4.07488182 -8.02676347 4.29316826 -9.375 4.5 C-13.96400501 5.21208698 -17.38766999 5.91204048 -21 9 C-23.75 9.6875 -23.75 9.6875 -26 10 C-26 10.66 -26 11.32 -26 12 C-27.71659432 13.35803676 -29.53184882 14.49830258 -31.37109375 15.68359375 C-33.29953716 17.00013286 -33.29953716 17.00013286 -34 20 C-36.0625 20.6875 -36.0625 20.6875 -38 21 C-36.32598022 17.04322598 -33.86850715 14.15535787 -31 11 C-30.34 11 -29.68 11 -29 11 C-29 10.34 -29 9.68 -29 9 C-28.360625 8.71125 -27.72125 8.4225 -27.0625 8.125 C-24.84793921 7.17176549 -24.84793921 7.17176549 -24 5 C-22.1796875 4.47265625 -22.1796875 4.47265625 -19.875 4.0625 C-16.70953945 3.43740906 -14.42374604 2.73714732 -11.4375 1.375 C-7.2601996 -0.29592016 -4.45532329 -0.2344907 0 0 Z " fill="#8CD7F1" transform="translate(77,80)"/>
<path d="M0 0 C0.66 0.33 1.32 0.66 2 1 C-3.625 5 -3.625 5 -7 5 C-7.33 5.99 -7.66 6.98 -8 8 C-10.32671865 9.01529541 -12.6603447 10.01488198 -15 11 C-15.99 12.485 -15.99 12.485 -17 14 C-17.99 14 -18.98 14 -20 14 C-20 14.66 -20 15.32 -20 16 C-20.78375 16.61875 -21.5675 17.2375 -22.375 17.875 C-24.86229156 19.88852174 -25.85538266 21.08642859 -27 24 C-27.99 24 -28.98 24 -30 24 C-28.25 18.25 -28.25 18.25 -26 16 C-25.01 16 -24.02 16 -23 16 C-22.67 15.01 -22.34 14.02 -22 13 C-21.34 13 -20.68 13 -20 13 C-20 12.01 -20 11.02 -20 10 C-17.09399739 8.74335022 -15.20395416 8 -12 8 C-12 7.01 -12 6.02 -12 5 C-10.04578965 4.13644222 -8.08648653 3.28440066 -6.125 2.4375 C-4.48917969 1.72400391 -4.48917969 1.72400391 -2.8203125 0.99609375 C-1.88960937 0.66738281 -0.95890625 0.33867188 0 0 Z " fill="#5FC8EB" transform="translate(60,80)"/>
<path d="M0 0 C1.65 0 3.3 0 5 0 C5 2.64 5 5.28 5 8 C6.98 8 8.96 8 11 8 C11.33 7.01 11.66 6.02 12 5 C11.44854729 10.23880078 10.57077907 14.97350697 9 20 C8.34 20 7.68 20 7 20 C6.86722656 19.38511719 6.73445312 18.77023438 6.59765625 18.13671875 C6.42105469 17.32847656 6.24445313 16.52023438 6.0625 15.6875 C5.88847656 14.88699219 5.71445313 14.08648437 5.53515625 13.26171875 C5.00113841 10.854599 5.00113841 10.854599 4 8 C3.34 8 2.68 8 2 8 C0.23537317 4.91190305 0 3.76687864 0 0 Z " fill="#35B6E5" transform="translate(173,104)"/>
<path d="M0 0 C1.7074998 1.28062485 3.37373596 2.61767557 5 4 C5 4.66 5 5.32 5 6 C5.66 6 6.32 6 7 6 C7.2475 6.61875 7.495 7.2375 7.75 7.875 C8.82396211 10.15001528 8.82396211 10.15001528 11.0625 11 C13 12 13 12 13.75 14.125 C13.87375 15.053125 13.87375 15.053125 14 16 C14.66 16 15.32 16 16 16 C18.02350324 19.03525486 18.32124018 20.19426202 18.625 23.6875 C18.69976562 24.49574219 18.77453125 25.30398437 18.8515625 26.13671875 C18.92503906 27.05904297 18.92503906 27.05904297 19 28 C19.66 28 20.32 28 21 28 C20.34 29.32 19.68 30.64 19 32 C18.18395001 30.0848421 17.37229368 28.16781166 16.5625 26.25 C16.11003906 25.18265625 15.65757812 24.1153125 15.19140625 23.015625 C14.26020447 20.6586159 13.5215928 18.47007165 13 16 C11.68 16 10.36 16 9 16 C7 13 7 13 7 10 C6.34 10 5.68 10 5 10 C3.7109375 8.3203125 3.7109375 8.3203125 2.375 6.125 C1.92898437 5.40570313 1.48296875 4.68640625 1.0234375 3.9453125 C0 2 0 2 0 0 Z " fill="#83D3EF" transform="translate(161,96)"/>
<path d="M0 0 C-0.33 0.99 -0.66 1.98 -1 3 C-3.0625 3.6875 -3.0625 3.6875 -5 4 C-5 5.32 -5 6.64 -5 8 C-8.08809695 9.76462683 -9.23312136 10 -13 10 C-13 10.99 -13 11.98 -13 13 C-14.3125 14.6875 -14.3125 14.6875 -16 16 C-16.99 16 -17.98 16 -19 16 C-18.34 14.35 -17.68 12.7 -17 11 C-16.34 11 -15.68 11 -15 11 C-14.67 10.01 -14.34 9.02 -14 8 C-11.6015625 5.95703125 -11.6015625 5.95703125 -8.625 3.8125 C-7.64789063 3.09707031 -6.67078125 2.38164063 -5.6640625 1.64453125 C-3 0 -3 0 0 0 Z " fill="#38B9E6" transform="translate(53,80)"/>
<path d="M0 0 C1.65 0 3.3 0 5 0 C5 0.66 5 1.32 5 2 C5.886875 2.12375 6.77375 2.2475 7.6875 2.375 C10.70387502 2.94412736 13.20326054 3.76614436 16 5 C16 6.32 16 7.64 16 9 C16.5775 9.28875 17.155 9.5775 17.75 9.875 C20.875 11.4375 20.875 11.4375 24 13 C24 13.66 24 14.32 24 15 C19.96678237 13.78065514 16.45730521 12.44045073 13 10 C13 9.34 13 8.68 13 8 C12.34 8 11.68 8 11 8 C11 7.34 11 6.68 11 6 C10.01 6 9.02 6 8 6 C8 5.34 8 4.68 8 4 C7.4225 3.87625 6.845 3.7525 6.25 3.625 C3.97664233 2.99351176 2.0746471 2.11141809 0 1 C0 0.67 0 0.34 0 0 Z " fill="#66CAEC" transform="translate(136,80)"/>
<path d="M0 0 C0.495 0.99 0.495 0.99 1 2 C0.07251953 1.99476318 -0.85496094 1.98952637 -1.81054688 1.98413086 C-5.28451166 1.96698673 -8.75843082 1.95450035 -12.23242188 1.94506836 C-13.72982497 1.94007057 -15.22722327 1.9332701 -16.72460938 1.92456055 C-18.88933505 1.91229377 -21.05399565 1.90672603 -23.21875 1.90234375 C-24.51748047 1.89710693 -25.81621094 1.89187012 -27.15429688 1.88647461 C-31.18086673 2.0053392 -35.01415096 2.43973231 -39 3 C-39 2.01 -39 1.02 -39 0 C-25.92233728 -1.23374177 -13.0966756 -0.75915273 0 0 Z " fill="#39BAE7" transform="translate(119,68)"/>
<path d="M0 0 C0.33 0 0.66 0 1 0 C1.125 2.875 1.125 2.875 1 6 C0.34 6.66 -0.32 7.32 -1 8 C-1 8.99 -1 9.98 -1 11 C-1.680625 11.639375 -2.36125 12.27875 -3.0625 12.9375 C-3.701875 13.618125 -4.34125 14.29875 -5 15 C-4.86358623 17.21858253 -4.86358623 17.21858253 -4 19 C-4.66 19 -5.32 19 -6 19 C-6.33 19.99 -6.66 20.98 -7 22 C-7.66 21.67 -8.32 21.34 -9 21 C-8.45010261 16.02801107 -6.79487209 12.06987623 -4.5 7.6875 C-4.17902344 7.05521484 -3.85804687 6.42292969 -3.52734375 5.77148438 C-1.16976305 1.16976305 -1.16976305 1.16976305 0 0 Z " fill="#1C85C7" transform="translate(28,53)"/>
<path d="M0 0 C3.63 0 7.26 0 11 0 C11 0.66 11 1.32 11 2 C11.86625 2.12375 12.7325 2.2475 13.625 2.375 C16.89513853 2.98058121 19.87256899 3.88306035 23 5 C23 5.99 23 6.98 23 8 C20.47717364 7.40336519 17.9569878 6.79794859 15.4375 6.1875 C14.73302734 6.02185547 14.02855469 5.85621094 13.30273438 5.68554688 C8.61587709 4.54083058 4.38673952 3.01178987 0 1 C0 0.67 0 0.34 0 0 Z " fill="#46BEE8" transform="translate(121,72)"/>
<path d="M0 0 C2.4294516 3.6441774 2.16179575 5.71241272 2 10 C-1.465 11.485 -1.465 11.485 -5 13 C-5.125 5.375 -5.125 5.375 -4 2 C-3.01 2 -2.02 2 -1 2 C-0.67 1.34 -0.34 0.68 0 0 Z " fill="#087DC5" transform="translate(22,72)"/>
<path d="M0 0 C0.66 0 1.32 0 2 0 C1.23290634 3.4979471 -0.17318241 6.38029527 -1.8125 9.5625 C-4.10692421 14.27210759 -6.02722124 19.14890469 -8 24 C-10.046875 20.28125 -10.046875 20.28125 -9.625 17.75 C-9.41875 17.1725 -9.2125 16.595 -9 16 C-8.34 16 -7.68 16 -7 16 C-6.87625 15.319375 -6.7525 14.63875 -6.625 13.9375 C-5.90257585 10.5421065 -5.13661295 7.28354851 -4 4 C-3.01 3.67 -2.02 3.34 -1 3 C-0.67 2.01 -0.34 1.02 0 0 Z " fill="#6ACAEC" transform="translate(28,104)"/>
<path d="M0 0 C1.2065625 0.0309375 1.2065625 0.0309375 2.4375 0.0625 C1.1175 2.7025 -0.2025 5.3425 -1.5625 8.0625 C-2.2225 8.0625 -2.8825 8.0625 -3.5625 8.0625 C-3.8925 9.3825 -4.2225 10.7025 -4.5625 12.0625 C-5.5525 12.0625 -6.5425 12.0625 -7.5625 12.0625 C-7.68625 13.114375 -7.81 14.16625 -7.9375 15.25 C-8.47390782 18.52208771 -9.20130035 21.06786076 -10.5625 24.0625 C-10.8925 24.0625 -11.2225 24.0625 -11.5625 24.0625 C-12.00613034 19.33044302 -10.68968331 15.2468359 -8.5625 11.0625 C-7.80259766 10.31226562 -7.80259766 10.31226562 -7.02734375 9.546875 C-4.69464463 7.18307323 -4.37925398 4.21283679 -3.5625 1.0625 C-2.5625 0.0625 -2.5625 0.0625 0 0 Z " fill="#37B8E6" transform="translate(31.5625,95.9375)"/>
<path d="M0 0 C3.86488632 -0.3513533 6.29767307 0.51406348 9.765625 2.140625 C13.74695109 3.67190427 17.94022676 4.39583737 22.109375 5.25390625 C25 6 25 6 28 8 C28 8.66 28 9.32 28 10 C27.01 10 26.02 10 25 10 C25 9.34 25 8.68 25 8 C23.35 8 21.7 8 20 8 C20 7.34 20 6.68 20 6 C18.9275 6.103125 17.855 6.20625 16.75 6.3125 C10.6583456 6.36728106 5.41611954 3.52752245 0 1 C0 0.67 0 0.34 0 0 Z " fill="#5AC5EB" transform="translate(116,72)"/>
<path d="M0 0 C0 2.33333333 0 4.66666667 0 7 C0.99 7 1.98 7 3 7 C3 7.66 3 8.32 3 9 C2.34 9 1.68 9 1 9 C1.33 10.65 1.66 12.3 2 14 C-1.915141 10.64416485 -4.0795774 6.71933638 -6 2 C-6 1.34 -6 0.68 -6 0 C-3 -1 -3 -1 0 0 Z " fill="#1380C5" transform="translate(28,134)"/>
<path d="M0 0 C1.65 0.33 3.3 0.66 5 1 C5 1.66 5 2.32 5 3 C5.99 3.33 6.98 3.66 8 4 C0.08 5.485 0.08 5.485 -8 7 C-8 5.35 -8 3.7 -8 2 C-5.36 2 -2.72 2 0 2 C0 1.34 0 0.68 0 0 Z " fill="#EAF5F7" transform="translate(48,122)"/>
<path d="M0 0 C1.32 0 2.64 0 4 0 C4.75 2.6875 4.75 2.6875 5 6 C3.1875 8.875 3.1875 8.875 1 11 C0.34 11 -0.32 11 -1 11 C-1.0270043 9.54176788 -1.04639787 8.08339325 -1.0625 6.625 C-1.07410156 5.81289062 -1.08570313 5.00078125 -1.09765625 4.1640625 C-1 2 -1 2 0 0 Z " fill="#057CC5" transform="translate(177,72)"/>
<path d="M0 0 C0.66 0.33 1.32 0.66 2 1 C-3.75 6 -3.75 6 -6 6 C-6 6.66 -6 7.32 -6 8 C-6.99 8.33 -7.98 8.66 -9 9 C-10.85206604 10.79008327 -10.85206604 10.79008327 -12.625 12.9375 C-13.54152344 14.00291016 -13.54152344 14.00291016 -14.4765625 15.08984375 C-16.05026342 16.92714018 -16.05026342 16.92714018 -17 19 C-17.66 19 -18.32 19 -19 19 C-18.21983232 12.85795261 -12.36116036 8.89053155 -8 5 C-5.36930468 3.00639235 -2.94762738 1.52644989 0 0 Z " fill="#E5F5FC" transform="translate(46,101)"/>
<path d="M0 0 C5.15106966 1.41654416 9.84916049 3.61575697 14 7 C14.69500221 8.31878511 15.36565949 9.65098764 16 11 C17.32520503 11.68268138 18.65812182 12.3507041 20 13 C20.33 13.99 20.66 14.98 21 16 C20.01 15.67 19.02 15.34 18 15 C18 14.34 18 13.68 18 13 C17.4225 12.9175 16.845 12.835 16.25 12.75 C13.36130421 11.7871014 12.10880839 10.17271168 10 8 C8.33675599 6.99431758 6.67063747 5.99335201 5 5 C4.67 4.34 4.34 3.68 4 3 C1.97536745 2.34786708 1.97536745 2.34786708 0 2 C0 1.34 0 0.68 0 0 Z " fill="#A9E0F5" transform="translate(142,88)"/>
<path d="M0 0 C3.3 0.33 6.6 0.66 10 1 C9.34 2.98 8.68 4.96 8 7 C6.68 7 5.36 7 4 7 C3.67 6.01 3.34 5.02 3 4 C2.34 4.99 1.68 5.98 1 7 C0 2.25 0 2.25 0 0 Z " fill="#0276C1" transform="translate(168,133)"/>
<path d="M0 0 C0.66 0 1.32 0 2 0 C1.67 0.99 1.34 1.98 1 3 C0.34 3 -0.32 3 -1 3 C-1.12375 4.03125 -1.2475 5.0625 -1.375 6.125 C-2.19106133 11.18458025 -3.67669004 15.46031066 -6 20 C-6.10823773 17.75106046 -6.18569645 15.50062425 -6.25 13.25 C-6.29640625 11.99703125 -6.3428125 10.7440625 -6.390625 9.453125 C-6 6 -6 6 -4.109375 3.546875 C-2 2 -2 2 0 2 C0 1.34 0 0.68 0 0 Z " fill="#28AEE1" transform="translate(24,104)"/>
<path d="M0 0 C1.65 0 3.3 0 5 0 C5 0.66 5 1.32 5 2 C5.66 2 6.32 2 7 2 C7 1.34 7 0.68 7 0 C7.66 0.33 8.32 0.66 9 1 C9 1.99 9 2.98 9 4 C10.65 4.33 12.3 4.66 14 5 C14.33 6.32 14.66 7.64 15 9 C14.01 8.67 13.02 8.34 12 8 C12 7.34 12 6.68 12 6 C10.948125 5.87625 9.89625 5.7525 8.8125 5.625 C5.54041229 5.08859218 2.99463924 4.36119965 0 3 C0 2.01 0 1.02 0 0 Z " fill="#3FBCE6" transform="translate(144,80)"/>
<path d="M0 0 C0.66 1.32 1.32 2.64 2 4 C2.66 4 3.32 4 4 4 C6.02350324 7.03525486 6.32124018 8.19426202 6.625 11.6875 C6.69976562 12.49574219 6.77453125 13.30398437 6.8515625 14.13671875 C6.92503906 15.05904297 6.92503906 15.05904297 7 16 C7.66 16 8.32 16 9 16 C8.34 17.32 7.68 18.64 7 20 C6.66226563 19.18015625 6.32453125 18.3603125 5.9765625 17.515625 C5.53054687 16.43796875 5.08453125 15.3603125 4.625 14.25 C4.18414062 13.18265625 3.74328125 12.1153125 3.2890625 11.015625 C2.10150092 8.10676588 2.10150092 8.10676588 0.8359375 5.859375 C0 4 0 4 0 0 Z " fill="#69CAEA" transform="translate(173,108)"/>
<path d="M0 0 C2.475 0.495 2.475 0.495 5 1 C5 1.66 5 2.32 5 3 C5.5775 3.268125 6.155 3.53625 6.75 3.8125 C9.05550043 5.02929189 11.02056192 6.30333879 13 8 C13 8.66 13 9.32 13 10 C12.01 10 11.02 10 10 10 C10 9.34 10 8.68 10 8 C9.01 7.67 8.02 7.34 7 7 C7 6.34 7 5.68 7 5 C6.21625 5.04125 5.4325 5.0825 4.625 5.125 C2 5 2 5 0 3 C0 2.01 0 1.02 0 0 Z " fill="#E0F2FB" transform="translate(147,96)"/>
<path d="M0 0 C-3.02441707 2.50247275 -5.86126182 3.84593265 -9.5625 5.125 C-10.51253906 5.45757812 -11.46257813 5.79015625 -12.44140625 6.1328125 C-14.29257581 6.7602318 -16.14569815 7.38189938 -18 8 C-18 7.01 -18 6.02 -18 5 C-16.13103445 4.15321949 -14.25449819 3.32313789 -12.375 2.5 C-10.80878906 1.80390625 -10.80878906 1.80390625 -9.2109375 1.09375 C-5.91875709 -0.02767398 -3.44884777 -0.207138 0 0 Z " fill="#3CBBE6" transform="translate(74,72)"/>
<path d="M0 0 C3.14737182 0.69941596 6.02588876 1.76078698 9 3 C9 3.99 9 4.98 9 6 C7.35232753 5.71890887 5.70686855 5.42481474 4.0625 5.125 C3.14597656 4.96257813 2.22945313 4.80015625 1.28515625 4.6328125 C0.15400391 4.31957031 0.15400391 4.31957031 -1 4 C-1.33 3.34 -1.66 2.68 -2 2 C-1.34 2 -0.68 2 0 2 C0 1.34 0 0.68 0 0 Z M-3 5 C-1.35 5 0.3 5 2 5 C2 5.33 2 5.66 2 6 C0.35 6 -1.3 6 -3 6 C-3 5.67 -3 5.34 -3 5 Z " fill="#037AC5" transform="translate(122,18)"/>
<path d="M0 0 C-2.17899346 0.97338256 -4.35930521 1.94337474 -6.54296875 2.90625 C-8.05256858 3.57824992 -9.55667875 4.26296444 -11.05078125 4.96875 C-15.67595291 7.1080157 -15.67595291 7.1080157 -19 6 C-13.77411039 2.01182108 -6.59930661 -2.19976887 0 0 Z " fill="#76CFEE" transform="translate(75,78)"/>
<path d="M0 0 C0 0.66 0 1.32 0 2 C-1.26839526 2.50615298 -2.53983102 3.00469099 -3.8125 3.5 C-4.87404297 3.91765625 -4.87404297 3.91765625 -5.95703125 4.34375 C-8 5 -8 5 -11 5 C-11 5.66 -11 6.32 -11 7 C-12.65 7.33 -14.3 7.66 -16 8 C-14.9664273 5.08887215 -14.30889697 4.15662381 -11.50390625 2.734375 C-10.53324219 2.40953125 -9.56257813 2.0846875 -8.5625 1.75 C-7.59441406 1.41484375 -6.62632813 1.0796875 -5.62890625 0.734375 C-3 0 -3 0 0 0 Z " fill="#BBE7F6" transform="translate(67,87)"/>
<path d="M0 0 C2 2 2 2 2 5 C3.32 5.33 4.64 5.66 6 6 C5 8 5 8 3 9 C2.34 8.67 1.68 8.34 1 8 C1.33 8.99 1.66 9.98 2 11 C1.01 11 0.02 11 -1 11 C-1.02688151 9.35425434 -1.04634123 7.70838587 -1.0625 6.0625 C-1.07410156 5.14597656 -1.08570313 4.22945312 -1.09765625 3.28515625 C-1 1 -1 1 0 0 Z " fill="#0479C5" transform="translate(169,53)"/>
<path d="M0 0 C0.99 0.33 1.98 0.66 3 1 C3 4.3 3 7.6 3 11 C1.02 10.34 -0.96 9.68 -3 9 C-2.01 6.03 -1.02 3.06 0 0 Z " fill="#027AC6" transform="translate(29,53)"/>
<path d="M0 0 C0.75 1.75 0.75 1.75 1 4 C-0.30973998 5.3565164 -1.64802142 6.68557638 -3 8 C-4.18581908 10.28764263 -5.07251572 12.58854088 -6 15 C-7.12377697 11.69564916 -6.89554742 9.9493138 -5.5625 6.75 C-5.27503906 6.04359375 -4.98757812 5.3371875 -4.69140625 4.609375 C-4.46324219 4.07828125 -4.23507813 3.5471875 -4 3 C-3.01 3 -2.02 3 -1 3 C-0.67 2.01 -0.34 1.02 0 0 Z " fill="#BCE8F9" transform="translate(31,109)"/>
<path d="M0 0 C-2 2 -2 2 -4.33837891 2.13525391 C-5.29147949 2.08288574 -6.24458008 2.03051758 -7.2265625 1.9765625 C-8.2578125 1.925 -9.2890625 1.8734375 -10.3515625 1.8203125 C-11.97191406 1.72363281 -11.97191406 1.72363281 -13.625 1.625 C-14.71296875 1.56828125 -15.8009375 1.5115625 -16.921875 1.453125 C-19.61522387 1.3113698 -22.3076793 1.15993358 -25 1 C-25 0.67 -25 0.34 -25 0 C-21.58382503 -0.1972935 -18.16705407 -0.38112295 -14.75 -0.5625 C-13.29787109 -0.64661133 -13.29787109 -0.64661133 -11.81640625 -0.73242188 C-10.88183594 -0.78076172 -9.94726562 -0.82910156 -8.984375 -0.87890625 C-8.12553711 -0.9260376 -7.26669922 -0.97316895 -6.38183594 -1.02172852 C-4.07335735 -1.00066921 -2.20243733 -0.66206871 0 0 Z " fill="#BBDBF0" transform="translate(118,185)"/>
<path d="M0 0 C3.16115776 1.36983503 3.9927092 1.9890638 6 5 C7.98 4.67 9.96 4.34 12 4 C11.67 5.65 11.34 7.3 11 9 C6.21993392 7.08797357 2.20227047 4.97233765 -2 2 C-1.34 1.34 -0.68 0.68 0 0 Z " fill="#1D86CB" transform="translate(52,168)"/>
<path d="M0 0 C0.66 0 1.32 0 2 0 C1.67 0.99 1.34 1.98 1 3 C0.67 2.01 0.34 1.02 0 0 Z M-7 2 C-4.69 2 -2.38 2 0 2 C-0.66 3.65 -1.32 5.3 -2 7 C-4.4375 6.625 -4.4375 6.625 -7 6 C-7.33 5.34 -7.66 4.68 -8 4 C-7.67 3.34 -7.34 2.68 -7 2 Z " fill="#037CC7" transform="translate(62,25)"/>
<path d="M0 0 C0.33 0 0.66 0 1 0 C0.48594831 4.96916636 -0.23384882 9.29026351 -2 14 C-2.33 14 -2.66 14 -3 14 C-3 10.37 -3 6.74 -3 3 C-2.01 3 -1.02 3 0 3 C0 2.01 0 1.02 0 0 Z " fill="#30A9D8" transform="translate(184,109)"/>
<path d="M0 0 C1.65 0 3.3 0 5 0 C5 2.64 5 5.28 5 8 C4.34 8 3.68 8 3 8 C2.67 7.01 2.34 6.02 2 5 C0.50014391 3.33289654 0.50014391 3.33289654 -1 2 C-0.67 1.34 -0.34 0.68 0 0 Z " fill="#2DB3E3" transform="translate(168,96)"/>
<path d="M0 0 C3.48654876 3.84722622 5.91552207 7.90194018 7 13 C6.57421875 15.24609375 6.57421875 15.24609375 6 17 C4.99063464 14.921188 3.99282154 12.8367638 3 10.75 C2.443125 9.58984375 1.88625 8.4296875 1.3125 7.234375 C0 4 0 4 0 0 Z " fill="#95DBF3" transform="translate(173,112)"/>
<path d="M0 0 C0.66 0.33 1.32 0.66 2 1 C1.67 1.66 1.34 2.32 1 3 C0.34 3 -0.32 3 -1 3 C-1.0825 3.61875 -1.165 4.2375 -1.25 4.875 C-2 7 -2 7 -3.9375 8.125 C-4.618125 8.41375 -5.29875 8.7025 -6 9 C-6.66 9.66 -7.32 10.32 -8 11 C-7.75 9.125 -7.75 9.125 -7 7 C-5.67532254 6.3162955 -4.34136367 5.65035814 -3 5 C-1.79117904 2.99983534 -1.79117904 2.99983534 -1 1 C-0.67 0.67 -0.34 0.34 0 0 Z " fill="#A5DEF5" transform="translate(37,101)"/>
<path d="M0 0 C1.65 0.33 3.3 0.66 5 1 C3.68 3.31 2.36 5.62 1 8 C-1 5 -1 5 -0.625 2.3125 C-0.41875 1.549375 -0.2125 0.78625 0 0 Z " fill="#E9F4F9" transform="translate(26,48)"/>
<path d="M0 0 C3 1 3 1 5 4 C5 4.99 5 5.98 5 7 C2.13275314 6.42655063 1.1385485 6.1385485 -1 4 C-0.625 1.875 -0.625 1.875 0 0 Z " fill="#117FC9" transform="translate(161,41)"/>
<path d="M0 0 C0.66 0.33 1.32 0.66 2 1 C2 1.66 2 2.32 2 3 C1.360625 3.12375 0.72125 3.2475 0.0625 3.375 C-0.618125 3.58125 -1.29875 3.7875 -2 4 C-2.33 4.66 -2.66 5.32 -3 6 C-4.98 6 -6.96 6 -9 6 C-6.45368965 3.02930459 -3.57769851 1.5224249 0 0 Z " fill="#3091CD" transform="translate(65,21)"/>
<path d="M0 0 C1.98 0 3.96 0 6 0 C4.68 1.65 3.36 3.3 2 5 C4.97 5.495 4.97 5.495 8 6 C3.99799622 7.60080151 0.95443764 6.29279692 -3 5 C-2.505 4.54625 -2.01 4.0925 -1.5 3.625 C0.22609337 2.12364481 0.22609337 2.12364481 0 0 Z " fill="#248DCE" transform="translate(76,177)"/>
<path d="M0 0 C2.18994248 3.28491373 2.35277339 4.83095639 2.625 8.6875 C2.69976562 9.68136719 2.77453125 10.67523438 2.8515625 11.69921875 C2.92503906 12.83810547 2.92503906 12.83810547 3 14 C2.53980469 13.06994141 2.53980469 13.06994141 2.0703125 12.12109375 C1.37740316 10.7479194 0.6473313 9.39262612 -0.125 8.0625 C-1.18450524 5.56509478 -1.21790172 3.68745456 -1 1 C-0.67 0.67 -0.34 0.34 0 0 Z " fill="#258BCA" transform="translate(182,77)"/>
<path d="M0 0 C0.33 1.32 0.66 2.64 1 4 C1.99 4 2.98 4 4 4 C3.67 7.3 3.34 10.6 3 14 C2.67 14 2.34 14 2 14 C0.66416101 9.15758367 -0.25328119 5.06562383 0 0 Z " fill="#33A4D5" transform="translate(15,108)"/>
<path d="M0 0 C0 0.66 0 1.32 0 2 C-3.82989106 3.80230168 -6.78121808 4.19622241 -11 4 C-10.67 3.01 -10.34 2.02 -10 1 C-2.25 0 -2.25 0 0 0 Z " fill="#0279C5" transform="translate(80,20)"/>
<path d="M0 0 C0 0.66 0 1.32 0 2 C-1.26839526 2.50615298 -2.53983102 3.00469099 -3.8125 3.5 C-4.87404297 3.91765625 -4.87404297 3.91765625 -5.95703125 4.34375 C-8 5 -8 5 -11 5 C-7.33938161 1.08692517 -5.5077267 0 0 0 Z " fill="#1E86C5" transform="translate(77,18)"/>
<path d="M0 0 C1 4 1 4 -0.9375 7.25 C-1.618125 8.1575 -2.29875 9.065 -3 10 C-3.99 9.67 -4.98 9.34 -6 9 C-4.02 6.03 -2.04 3.06 0 0 Z " fill="#D5EBF4" transform="translate(174,142)"/>
<path d="M0 0 C4.95 0.99 4.95 0.99 10 2 C6.3558226 4.4294516 4.28758728 4.16179575 0 4 C0 2.68 0 1.36 0 0 Z " fill="#0E81C7" transform="translate(155,128)"/>
<path d="M0 0 C0.99 0 1.98 0 3 0 C3 0.66 3 1.32 3 2 C3.66 2 4.32 2 5 2 C5.66 3.98 6.32 5.96 7 8 C6.34 8 5.68 8 5 8 C5 7.34 5 6.68 5 6 C4.360625 5.7525 3.72125 5.505 3.0625 5.25 C1 4 1 4 0.25 1.875 C0.1675 1.25625 0.085 0.6375 0 0 Z " fill="#B4E4F7" transform="translate(163,104)"/>
<path d="M0 0 C3.78527521 0.51152368 5.44108688 1.20845842 8 4 C8.99 4.33 9.98 4.66 11 5 C11 5.66 11 6.32 11 7 C6.96678237 5.78065514 3.45730521 4.44045073 0 2 C0 1.34 0 0.68 0 0 Z " fill="#74CEEE" transform="translate(149,88)"/>
<path d="M0 0 C3.99996286 1.33332095 4.83782337 3.4957827 7 7 C6.67 7.66 6.34 8.32 6 9 C5.01 8.67 4.02 8.34 3 8 C2.67 6.35 2.34 4.7 2 3 C1.34 3 0.68 3 0 3 C0 2.01 0 1.02 0 0 Z " fill="#2488CC" transform="translate(168,50)"/>
<path d="M0 0 C0.33 0.99 0.66 1.98 1 3 C-0.25 4.5625 -0.25 4.5625 -2 6 C-4.1875 5.6875 -4.1875 5.6875 -6 5 C-3.375 1.125 -3.375 1.125 0 0 Z " fill="#0679C7" transform="translate(47,34)"/>
<path d="M0 0 C2.96175123 0.61277612 4.38058783 1.25372522 7 3 C6.67 3.99 6.34 4.98 6 6 C4.125 5.8125 4.125 5.8125 2 5 C0.75 2.4375 0.75 2.4375 0 0 Z " fill="#0E7DC5" transform="translate(152,34)"/>
<path d="M0 0 C4 0 4 0 6.25 1.8125 C8 4 8 4 8 7 C6.0625 6.6875 6.0625 6.6875 4 6 C3.67 5.01 3.34 4.02 3 3 C2.01 2.67 1.02 2.34 0 2 C0 1.34 0 0.68 0 0 Z " fill="#DAF3FB" transform="translate(160,106)"/>
<path d="M0 0 C0.66 0 1.32 0 2 0 C2 0.66 2 1.32 2 2 C3.32 2 4.64 2 6 2 C9 5.21428571 9 5.21428571 9 8 C8.01 7.67 7.02 7.34 6 7 C5.67 6.34 5.34 5.68 5 5 C4.154375 4.505 3.30875 4.01 2.4375 3.5 C1.633125 3.005 0.82875 2.51 0 2 C0 1.34 0 0.68 0 0 Z " fill="#99DBF3" transform="translate(156,96)"/>
<path d="M0 0 C0.98613281 0.30164063 1.97226563 0.60328125 2.98828125 0.9140625 C3.98214844 1.21054688 4.97601563 1.50703125 6 1.8125 C7.13888672 2.17214844 7.13888672 2.17214844 8.30078125 2.5390625 C8.30078125 3.1990625 8.30078125 3.8590625 8.30078125 4.5390625 C3.68078125 3.5490625 -0.93921875 2.5590625 -5.69921875 1.5390625 C-2.69921875 -0.4609375 -2.69921875 -0.4609375 0 0 Z " fill="#E8F7FD" transform="translate(130.69921875,89.4609375)"/>
<path d="M0 0 C0.99 0.33 1.98 0.66 3 1 C2.67 1.66 2.34 2.32 2 3 C2.66 3 3.32 3 4 3 C3.67 4.65 3.34 6.3 3 8 C-0.875 3.25 -0.875 3.25 -2 1 C-1.34 0.67 -0.68 0.34 0 0 Z " fill="#EAF5F9" transform="translate(171,48)"/>
<path d="M0 0 C2.475 0.99 2.475 0.99 5 2 C4.67 2.99 4.34 3.98 4 5 C0.62537285 4.45276317 -1.08235 3.9451 -4 2 C-2.68 2 -1.36 2 0 2 C0 1.34 0 0.68 0 0 Z " fill="#0979C2" transform="translate(143,27)"/>
<path d="M0 0 C0.66 0 1.32 0 2 0 C1.37240135 2.92879371 0.41377341 5.36095629 -1 8 C-1.99 8 -2.98 8 -4 8 C-4 6.68 -4 5.36 -4 4 C-3.01 3.67 -2.02 3.34 -1 3 C-0.67 2.01 -0.34 1.02 0 0 Z " fill="#5BC6EB" transform="translate(28,104)"/>
<path d="M0 0 C1.98 0 3.96 0 6 0 C6 0.66 6 1.32 6 2 C8.475 2.99 8.475 2.99 11 4 C8 5 8 5 5.95703125 4.22265625 C5.24933594 3.83980469 4.54164063 3.45695312 3.8125 3.0625 C3.09707031 2.68222656 2.38164062 2.30195312 1.64453125 1.91015625 C1.10183594 1.60980469 0.55914062 1.30945313 0 1 C0 0.67 0 0.34 0 0 Z " fill="#C4EAF8" transform="translate(133,88)"/>
<path d="M0 0 C-0.99 0 -1.98 0 -3 0 C-3.33 0.99 -3.66 1.98 -4 3 C-5.65 3.33 -7.3 3.66 -9 4 C-8.67 2.68 -8.34 1.36 -8 0 C-4.94736336 -0.98120464 -3.05263664 -0.98120464 0 0 Z " fill="#1789D1" transform="translate(126,180)"/>
<path d="M0 0 C3.63 0 7.26 0 11 0 C11 0.66 11 1.32 11 2 C6.58937864 3.0257259 4.07369424 3.03684712 0 1 C0 0.67 0 0.34 0 0 Z " fill="#D8EDF7" transform="translate(169,131)"/>
<path d="M0 0 C4.875 2.625 4.875 2.625 6 6 C3.83125748 5.49396008 2.00032373 5.00016187 0 4 C0 2.68 0 1.36 0 0 Z " fill="#41BDE7" transform="translate(160,90)"/>
<path d="M0 0 C1.98 0.66 3.96 1.32 6 2 C4.68 2.33 3.36 2.66 2 3 C2 3.99 2 4.98 2 6 C1.34 6 0.68 6 0 6 C-1.125 2.25 -1.125 2.25 0 0 Z " fill="#EAF7FC" transform="translate(64,178)"/>
<path d="M0 0 C2.475 0.495 2.475 0.495 5 1 C4.34 2.98 3.68 4.96 3 7 C2.34 6.67 1.68 6.34 1 6 C0.375 2.9375 0.375 2.9375 0 0 Z " fill="#1E86C7" transform="translate(173,133)"/>
<path d="M0 0 C2.64 0.66 5.28 1.32 8 2 C8 2.99 8 3.98 8 5 C2.25 3.125 2.25 3.125 0 2 C0 1.34 0 0.68 0 0 Z " fill="#3BBAE5" transform="translate(136,75)"/>
<path d="M0 0 C1.9375 0.6875 1.9375 0.6875 4 2 C4.75 4.625 4.75 4.625 5 7 C2.69 5.35 0.38 3.7 -2 2 C-1.34 1.34 -0.68 0.68 0 0 Z " fill="#2288CE" transform="translate(43,161)"/>
<path d="M0 0 C0.66 0.33 1.32 0.66 2 1 C2 1.99 2 2.98 2 4 C0.02 4.99 0.02 4.99 -2 6 C-2.66 5.34 -3.32 4.68 -4 4 C-2.68 2.68 -1.36 1.36 0 0 Z " fill="#E0EFF3" transform="translate(166,154)"/>
<path d="M0 0 C1.98 0.66 3.96 1.32 6 2 C6 2.66 6 3.32 6 4 C3 5 3 5 0 4 C0 2.68 0 1.36 0 0 Z " fill="#0D7DC3" transform="translate(136,23)"/>
<path d="M0 0 C0.99 0 1.98 0 3 0 C3.33 1.32 3.66 2.64 4 4 C3.34 4 2.68 4 2 4 C1.67 4.66 1.34 5.32 1 6 C0 5 0 5 -0.0625 2.4375 C-0.041875 1.633125 -0.02125 0.82875 0 0 Z " fill="#E7F4F7" transform="translate(20,136)"/>
<path d="M0 0 C0.66 0.33 1.32 0.66 2 1 C-0.46153846 5.8 -0.46153846 5.8 -3.1875 6.8125 C-3.785625 6.874375 -4.38375 6.93625 -5 7 C-3.70700306 4.11562221 -2.34058637 2.12780579 0 0 Z " fill="#9ADCF5" transform="translate(44,94)"/>
<path d="M0 0 C0.99 0 1.98 0 3 0 C3 0.99 3 1.98 3 3 C0.64561267 4.42944945 -0.48032433 5.08661261 -3.25 4.625 C-3.8275 4.41875 -4.405 4.2125 -5 4 C-4.01 3.67 -3.02 3.34 -2 3 C-1.34 2.01 -0.68 1.02 0 0 Z " fill="#46BFE7" transform="translate(45,85)"/>
<path d="M0 0 C3.625 -0.1875 3.625 -0.1875 7 0 C6.67 0.66 6.34 1.32 6 2 C3.35139573 2.59355614 0.70802678 2.74209269 -2 3 C-1.34 2.01 -0.68 1.02 0 0 Z " fill="#A4DFF4" transform="translate(77,80)"/>
<path d="M0 0 C1.65 0 3.3 0 5 0 C5 1.32 5 2.64 5 4 C5.99 4.33 6.98 4.66 8 5 C7.34 5.66 6.68 6.32 6 7 C1.125 2.25 1.125 2.25 0 0 Z " fill="#D9EBF1" transform="translate(160,39)"/>
</svg>
