<svg width="17" height="16" viewBox="0 0 17 16" fill="none" xmlns="http://www.w3.org/2000/svg">
<path d="M12.0417 2C12.2296 1.8232 12.4541 1.68266 12.7021 1.58573C12.95 1.4888 13.2166 1.4375 13.4867 1.4375C13.7568 1.4375 14.0234 1.4888 14.2714 1.58573C14.5194 1.68266 14.7439 1.8232 14.9317 2C15.1196 2.17681 15.269 2.38807 15.3719 2.62147C15.4749 2.85487 15.5294 3.10582 15.5294 3.36C15.5294 3.61418 15.4749 3.86513 15.3719 4.09853C15.269 4.33193 15.1196 4.54319 14.9317 4.72L5.37633 13.7133L1.41675 14.6667L2.42967 10.94L12.0417 2Z" stroke="#595959" stroke-width="2" stroke-linecap="round" stroke-linejoin="round"/>
</svg>
